<?xml version="1.0" encoding="UTF-8" standalone="no"?>
<svg width="104px" height="104px" viewBox="0 0 104 104" version="1.1" xmlns="http://www.w3.org/2000/svg" xmlns:xlink="http://www.w3.org/1999/xlink">
    <!-- Generator: Sketch 39.1 (31720) - http://www.bohemiancoding.com/sketch -->
    <title>edit-icon</title>
    <desc>Created with Sketch.</desc>
    <defs></defs>
    <g id="Annexe" stroke="none" stroke-width="1" fill="none" fill-rule="evenodd">
        <g id="Designers-Copy" transform="translate(-944.000000, -627.000000)" stroke-width="3">
            <g id="edit-icon" transform="translate(946.000000, 629.000000)">
                <circle id="Oval" stroke="#FFC81A" cx="50" cy="50" r="50"></circle>
                <g id="Page-1" transform="translate(25.000000, 26.000000)" stroke="#000000" stroke-linejoin="round">
                    <polygon id="Stroke-1" stroke-linecap="round" points="13.797211 36.7027944 23.6967062 5.5900952 44.909908 26.8032971"></polygon>
                    <polygon id="Stroke-3" stroke-linecap="round" points="41.3743649 23.267765 27.2322289 9.12562899 38.5459362 0.6403488 49.859645 11.9540576"></polygon>
                    <path d="M14.5043178,35.9956908 L25.1109198,25.3890888" id="Stroke-5" stroke-linecap="square"></path>
                    <path d="M25.8180138,19.0251256 C27.3801117,17.4630277 29.9127703,17.4630277 31.4748682,19.0251256 C33.0369661,20.5872235 33.0369661,23.1198821 31.4748682,24.68198 C29.9127703,26.2440779 27.3801117,26.2440779 25.8180138,24.68198 C24.2559159,23.1198821 24.2559159,20.5872235 25.8180138,19.0251256 L25.8180138,19.0251256 Z" id="Stroke-7" stroke-linecap="round"></path>
                    <path d="M4,40 L4,35" id="Stroke-11" stroke-linecap="square"></path>
                    <path d="M14,45 L9,45" id="Stroke-13" stroke-linecap="square"></path>
                    <polygon id="Stroke-9" stroke-linecap="round" points="0 41 8 41 8 49 0 49"></polygon>
                </g>
            </g>
        </g>
    </g>
</svg>