<?xml version="1.0" encoding="utf-8"?>
<!-- Generator: Adobe Illustrator 17.0.0, SVG Export Plug-In . SVG Version: 6.00 Build 0)  -->
<!DOCTYPE svg PUBLIC "-//W3C//DTD SVG 1.1//EN" "http://www.w3.org/Graphics/SVG/1.1/DTD/svg11.dtd">
<svg version="1.1" id="Calque_1" xmlns="http://www.w3.org/2000/svg" xmlns:xlink="http://www.w3.org/1999/xlink" x="0px" y="0px"
	 width="30px" height="30px" viewBox="118.45 118.45 30 30" enable-background="new 118.45 118.45 30 30" xml:space="preserve">
<path id="Blue_2_" fill="#3C5A99" d="M146.798,148.45c0.91,0,1.652-0.742,1.652-1.652v-26.695c0-0.91-0.742-1.652-1.652-1.652
	h-26.695c-0.91,0-1.652,0.742-1.652,1.652v26.684c0,0.91,0.742,1.652,1.652,1.652h26.695V148.45z"/>
<path id="f_1_" fill="#FFFFFF" d="M139.154,148.45v-11.622h3.9l0.584-4.53h-4.485v-2.889c0-1.315,0.36-2.203,2.248-2.203h2.394
	v-4.046c-0.416-0.056-1.843-0.18-3.496-0.18c-3.462,0-5.822,2.113-5.822,5.98v3.338h-3.912v4.53h3.912v11.622H139.154z"/>
</svg>
