<?xml version="1.0" encoding="UTF-8" standalone="no"?>
<svg width="18px" height="18px" viewBox="0 0 18 18" version="1.1" xmlns="http://www.w3.org/2000/svg" xmlns:xlink="http://www.w3.org/1999/xlink">
    <!-- Generator: Sketch 3.8.3 (29802) - http://www.bohemiancoding.com/sketch -->
    <title>glass</title>
    <desc>Created with Sketch.</desc>
    <defs></defs>
    <g id="Annexe" stroke="none" stroke-width="1" fill="none" fill-rule="evenodd">
        <g id="Designers-Copy" transform="translate(-195.000000, -372.000000)" fill="#FFC81A">
            <path d="M196.44,378.84 C196.44,375.86244 198.86244,373.44 201.84,373.44 C204.81756,373.44 207.24,375.86244 207.24,378.84 C207.24,381.81756 204.81756,384.24 201.84,384.24 C198.86244,384.24 196.44,381.81756 196.44,378.84 M212.28108,387.54264 L207.465,382.72692 C208.22964,381.62244 208.68,380.28468 208.68,378.84 C208.68,375.06216 205.61784,372 201.84,372 C198.06216,372 195,375.06216 195,378.84 C195,382.61784 198.06216,385.68 201.84,385.68 C203.28468,385.68 204.62244,385.22964 205.72692,384.465 L210.54264,389.28108 C211.02216,389.7606 211.7994,389.7606 212.27892,389.28108 L212.28108,389.27892 C212.7606,388.7994 212.7606,388.02216 212.28108,387.54264" id="glass"></path>
        </g>
    </g>
</svg>