<?xml version="1.0" encoding="UTF-8" standalone="no"?>
<svg width="35px" height="35px" viewBox="0 0 35 35" version="1.1" xmlns="http://www.w3.org/2000/svg" xmlns:xlink="http://www.w3.org/1999/xlink">
    <!-- Generator: Sketch 3.8.2 (29753) - http://www.bohemiancoding.com/sketch -->
    <title>Logo</title>
    <desc>Created with Sketch.</desc>
    <defs></defs>
    <g id="Symbols" stroke="none" stroke-width="1" fill="none" fill-rule="evenodd">
        <g id="Logo"></g>
        <g id="Page-1">
            <path d="M8.76320488,10.5753321 C9.08585854,10.5753321 9.3474439,10.8360389 9.3474439,11.157609 C9.3474439,11.479179 9.08585854,11.7397911 8.76320488,11.7397911 C8.44055122,11.7397911 8.17896585,11.479179 8.17896585,11.157609 C8.17896585,10.8360389 8.44055122,10.5753321 8.76320488,10.5753321" id="Fill-1" fill="#FFC81A"></path>
            <path d="M10.5158459,12.322087 C10.8384995,12.322087 11.1000849,12.5827938 11.1000849,12.9043639 C11.1000849,13.225934 10.8384995,13.486546 10.5158459,13.486546 C10.1931922,13.486546 9.93160683,13.225934 9.93160683,12.9043639 C9.93160683,12.5827938 10.1931922,12.322087 10.5158459,12.322087" id="Fill-3" fill="#FFC81A"></path>
            <path d="M14.0211278,12.322087 C14.3437815,12.322087 14.6053668,12.5827938 14.6053668,12.9043639 C14.6053668,13.225934 14.3437815,13.486546 14.0211278,13.486546 C13.6984741,13.486546 13.4368888,13.225934 13.4368888,12.9043639 C13.4368888,12.5827938 13.6984741,12.322087 14.0211278,12.322087" id="Fill-5" fill="#FFC81A"></path>
            <path d="M12.2684868,10.5753321 C12.5911405,10.5753321 12.8527259,10.8360389 12.8527259,11.157609 C12.8527259,11.479179 12.5911405,11.7397911 12.2684868,11.7397911 C11.9458332,11.7397911 11.6842478,11.479179 11.6842478,11.157609 C11.6842478,10.8360389 11.9458332,10.5753321 12.2684868,10.5753321" id="Fill-7" fill="#FFC81A"></path>
            <path d="M17.5264098,12.322087 C17.8490634,12.322087 18.1106488,12.5827938 18.1106488,12.9043639 C18.1106488,13.225934 17.8490634,13.486546 17.5264098,13.486546 C17.2037561,13.486546 16.9421707,13.225934 16.9421707,12.9043639 C16.9421707,12.5827938 17.2037561,12.322087 17.5264098,12.322087" id="Fill-9" fill="#FFC81A"></path>
            <path d="M10.5158459,8.82857713 C10.8384995,8.82857713 11.1000849,9.08928399 11.1000849,9.41085405 C11.1000849,9.73242412 10.8384995,9.99303617 10.5158459,9.99303617 C10.1931922,9.99303617 9.93160683,9.73242412 9.93160683,9.41085405 C9.93160683,9.08928399 10.1931922,8.82857713 10.5158459,8.82857713" id="Fill-11" fill="#FFC81A"></path>
            <path d="M14.0211278,8.82857713 C14.3437815,8.82857713 14.6053668,9.08928399 14.6053668,9.41085405 C14.6053668,9.73242412 14.3437815,9.99303617 14.0211278,9.99303617 C13.6984741,9.99303617 13.4368888,9.73242412 13.4368888,9.41085405 C13.4368888,9.08928399 13.6984741,8.82857713 14.0211278,8.82857713" id="Fill-13" fill="#FFC81A"></path>
            <path d="M17.5264098,8.82857713 C17.8490634,8.82857713 18.1106488,9.08928399 18.1106488,9.41085405 C18.1106488,9.73242412 17.8490634,9.99303617 17.5264098,9.99303617 C17.2037561,9.99303617 16.9421707,9.73242412 16.9421707,9.41085405 C16.9421707,9.08928399 17.2037561,8.82857713 17.5264098,8.82857713" id="Fill-15" fill="#FFC81A"></path>
            <path d="M15.7737688,10.5753321 C16.0964224,10.5753321 16.3580078,10.8360389 16.3580078,11.157609 C16.3580078,11.479179 16.0964224,11.7397911 15.7737688,11.7397911 C15.4511151,11.7397911 15.1895298,11.479179 15.1895298,11.157609 C15.1895298,10.8360389 15.4511151,10.5753321 15.7737688,10.5753321" id="Fill-17" fill="#FFC81A"></path>
            <path d="M8.76320488,14.0688419 C9.08585854,14.0688419 9.3474439,14.3295488 9.3474439,14.6511188 C9.3474439,14.9726889 9.08585854,15.233301 8.76320488,15.233301 C8.44055122,15.233301 8.17896585,14.9726889 8.17896585,14.6511188 C8.17896585,14.3295488 8.44055122,14.0688419 8.76320488,14.0688419" id="Fill-19" fill="#FFC81A"></path>
            <path d="M10.5158459,15.8155968 C10.8384995,15.8155968 11.1000849,16.0763037 11.1000849,16.3978738 C11.1000849,16.7194438 10.8384995,16.9800559 10.5158459,16.9800559 C10.1931922,16.9800559 9.93160683,16.7194438 9.93160683,16.3978738 C9.93160683,16.0763037 10.1931922,15.8155968 10.5158459,15.8155968" id="Fill-21" fill="#FFC81A"></path>
            <path d="M14.0211278,15.8155968 C14.3437815,15.8155968 14.6053668,16.0763037 14.6053668,16.3978738 C14.6053668,16.7194438 14.3437815,16.9800559 14.0211278,16.9800559 C13.6984741,16.9800559 13.4368888,16.7194438 13.4368888,16.3978738 C13.4368888,16.0763037 13.6984741,15.8155968 14.0211278,15.8155968" id="Fill-23" fill="#FFC81A"></path>
            <path d="M12.2684868,14.0688419 C12.5911405,14.0688419 12.8527259,14.3295488 12.8527259,14.6511188 C12.8527259,14.9726889 12.5911405,15.233301 12.2684868,15.233301 C11.9458332,15.233301 11.6842478,14.9726889 11.6842478,14.6511188 C11.6842478,14.3295488 11.9458332,14.0688419 12.2684868,14.0688419" id="Fill-25" fill="#FFC81A"></path>
            <path d="M17.5264098,15.8155968 C17.8490634,15.8155968 18.1106488,16.0763037 18.1106488,16.3978738 C18.1106488,16.7194438 17.8490634,16.9800559 17.5264098,16.9800559 C17.2037561,16.9800559 16.9421707,16.7194438 16.9421707,16.3978738 C16.9421707,16.0763037 17.2037561,15.8155968 17.5264098,15.8155968" id="Fill-27" fill="#FFC81A"></path>
            <path d="M15.7737688,14.0688419 C16.0964224,14.0688419 16.3580078,14.3295488 16.3580078,14.6511188 C16.3580078,14.9726889 16.0964224,15.233301 15.7737688,15.233301 C15.4511151,15.233301 15.1895298,14.9726889 15.1895298,14.6511188 C15.1895298,14.3295488 15.4511151,14.0688419 15.7737688,14.0688419" id="Fill-29" fill="#FFC81A"></path>
            <path d="M8.76320488,17.5623518 C9.08585854,17.5623518 9.3474439,17.8230586 9.3474439,18.1446287 C9.3474439,18.4661988 9.08585854,18.7268108 8.76320488,18.7268108 C8.44055122,18.7268108 8.17896585,18.4661988 8.17896585,18.1446287 C8.17896585,17.8230586 8.44055122,17.5623518 8.76320488,17.5623518" id="Fill-31" fill="#FFC81A"></path>
            <path d="M19.2790507,10.5753321 C19.6017044,10.5753321 19.8632898,10.8360389 19.8632898,11.157609 C19.8632898,11.479179 19.6017044,11.7397911 19.2790507,11.7397911 C18.9563971,11.7397911 18.6948117,11.479179 18.6948117,11.157609 C18.6948117,10.8360389 18.9563971,10.5753321 19.2790507,10.5753321" id="Fill-33" fill="#FFC81A"></path>
            <path d="M19.2790507,14.0688419 C19.6017044,14.0688419 19.8632898,14.3295488 19.8632898,14.6511188 C19.8632898,14.9726889 19.6017044,15.233301 19.2790507,15.233301 C18.9563971,15.233301 18.6948117,14.9726889 18.6948117,14.6511188 C18.6948117,14.3295488 18.9563971,14.0688419 19.2790507,14.0688419" id="Fill-35" fill="#FFC81A"></path>
            <path d="M19.2790507,17.5623518 C19.6017044,17.5623518 19.8632898,17.8230586 19.8632898,18.1446287 C19.8632898,18.4661988 19.6017044,18.7268108 19.2790507,18.7268108 C18.9563971,18.7268108 18.6948117,18.4661988 18.6948117,18.1446287 C18.6948117,17.8230586 18.9563971,17.5623518 19.2790507,17.5623518" id="Fill-37" fill="#FFC81A"></path>
            <path d="M10.5158459,19.3091067 C10.8384995,19.3091067 11.1000849,19.5698136 11.1000849,19.8913836 C11.1000849,20.2129537 10.8384995,20.4735657 10.5158459,20.4735657 C10.1931922,20.4735657 9.93160683,20.2129537 9.93160683,19.8913836 C9.93160683,19.5698136 10.1931922,19.3091067 10.5158459,19.3091067" id="Fill-39" fill="#FFC81A"></path>
            <path d="M14.0211278,19.3091067 C14.3437815,19.3091067 14.6053668,19.5698136 14.6053668,19.8913836 C14.6053668,20.2129537 14.3437815,20.4735657 14.0211278,20.4735657 C13.6984741,20.4735657 13.4368888,20.2129537 13.4368888,19.8913836 C13.4368888,19.5698136 13.6984741,19.3091067 14.0211278,19.3091067" id="Fill-41" fill="#FFC81A"></path>
            <path d="M12.2684868,17.5623518 C12.5911405,17.5623518 12.8527259,17.8230586 12.8527259,18.1446287 C12.8527259,18.4661988 12.5911405,18.7268108 12.2684868,18.7268108 C11.9458332,18.7268108 11.6842478,18.4661988 11.6842478,18.1446287 C11.6842478,17.8230586 11.9458332,17.5623518 12.2684868,17.5623518" id="Fill-43" fill="#FFC81A"></path>
            <path d="M17.5264098,19.3091067 C17.8490634,19.3091067 18.1106488,19.5698136 18.1106488,19.8913836 C18.1106488,20.2129537 17.8490634,20.4735657 17.5264098,20.4735657 C17.2037561,20.4735657 16.9421707,20.2129537 16.9421707,19.8913836 C16.9421707,19.5698136 17.2037561,19.3091067 17.5264098,19.3091067" id="Fill-45" fill="#FFC81A"></path>
            <path d="M15.7737688,17.5623518 C16.0964224,17.5623518 16.3580078,17.8230586 16.3580078,18.1446287 C16.3580078,18.4661988 16.0964224,18.7268108 15.7737688,18.7268108 C15.4511151,18.7268108 15.1895298,18.4661988 15.1895298,18.1446287 C15.1895298,17.8230586 15.4511151,17.5623518 15.7737688,17.5623518" id="Fill-47" fill="#FFC81A"></path>
            <g id="Group-51" transform="translate(0.000000, 0.047780)"></g>
            <path d="M26.2896051,15.2333484 L26.2896051,26.8784128 L14.6053002,26.8784128 L14.6053002,21.6381101 L21.0316441,21.6381101 L21.0316441,15.2333484 L26.2896051,15.2333484 Z M10.5158173,20.4736511 L8.17895634,20.4736511 L8.17895634,18.1446382 L8.17895634,14.6510714 L8.17895634,11.1575995 L8.17895634,8.82858661 L10.5158173,8.82858661 L14.0211563,8.82858661 L17.5264002,8.82858661 L19.8632612,8.82858661 L19.8632612,11.1575995 L19.8632612,14.0688893 L19.8632612,14.6510714 L19.8632612,18.1446382 L19.8632612,20.4736511 L17.5264002,20.4736511 L14.0211563,20.4736511 L13.4369173,20.4736511 L10.5158173,20.4736511 Z M21.0316441,7.66403277 L7.01057341,7.66403277 L7.01057341,21.6381101 L13.4369173,21.6381101 L13.4369173,28.0428719 L27.457988,28.0428719 L27.457988,14.0688893 L21.0316441,14.0688893 L21.0316441,7.66403277 Z" id="Fill-52" fill="#FFC81A"></path>
            <path d="M32.131748,30.3718847 L30.3791261,30.3718847 L30.3791261,32.1186207 L4.67375049,32.1186207 L4.67375049,30.3718847 L2.92103341,30.3718847 L2.92103341,4.75283775 L4.67375049,4.75283775 L4.67375049,3.00610179 L30.3791261,3.00610179 L30.3791261,4.75283775 L32.131748,4.75283775 L32.131748,30.3718847 Z M33.88437,31.5363438 L33.88437,33.8653567 L31.547509,33.8653567 L31.547509,33.2831746 L31.547509,31.5363438 L33.300131,31.5363438 L33.88437,31.5363438 Z M3.50527244,33.8653567 L1.16841146,33.8653567 L1.16841146,31.5363438 L1.75265049,31.5363438 L3.50527244,31.5363438 L3.50527244,33.2831746 L3.50527244,33.8653567 Z M1.16841146,3.58828391 L1.16841146,1.25927102 L3.50527244,1.25927102 L3.50527244,1.84154794 L3.50527244,3.58828391 L1.75265049,3.58828391 L1.16841146,3.58828391 Z M31.547509,1.25927102 L33.88437,1.25927102 L33.88437,3.58828391 L33.300131,3.58828391 L31.547509,3.58828391 L31.547509,1.84154794 L31.547509,1.25927102 Z M35.052848,4.75283775 L35.052848,0.0948119751 L30.3791261,0.0948119751 L30.3791261,1.84154794 L4.67375049,1.84154794 L4.67375049,0.0948119751 L2.85365855e-05,0.0948119751 L2.85365855e-05,4.75283775 L1.75265049,4.75283775 L1.75265049,30.3718847 L2.85365855e-05,30.3718847 L2.85365855e-05,35.0299105 L4.67375049,35.0299105 L4.67375049,33.2831746 L30.3791261,33.2831746 L30.3791261,35.0299105 L35.052848,35.0299105 L35.052848,30.3718847 L33.300131,30.3718847 L33.300131,4.75283775 L35.052848,4.75283775 Z" id="Fill-49" fill="#FFD731"></path>
        </g>
    </g>
</svg>