<?xml version="1.0" encoding="UTF-8" standalone="no"?>
<svg width="52px" height="52px" viewBox="0 0 52 52" version="1.1" xmlns="http://www.w3.org/2000/svg" xmlns:xlink="http://www.w3.org/1999/xlink">
    <!-- Generator: Sketch 39.1 (31720) - http://www.bohemiancoding.com/sketch -->
    <title>Page 1</title>
    <desc>Created with Sketch.</desc>
    <defs></defs>
    <g id="Events" stroke="none" stroke-width="1" fill="none" fill-rule="evenodd" stroke-linecap="round" stroke-linejoin="round">
        <g transform="translate(-91.000000, -676.000000)" id="Event-Classic" stroke="#000000" stroke-width="2">
            <g transform="translate(82.000000, 358.000000)">
                <g id="Event-collapsed" transform="translate(10.000000, 25.000000)">
                    <g id="Informations">
                        <g id="Page-1" transform="translate(0.000000, 294.000000)">
                            <path d="M25,0 C11.1928796,0 0,11.1928796 0,25 C0,38.8071204 11.1928796,50 25,50 C38.8071204,50 50,38.8071204 50,25" id="Stroke-1"></path>
                            <path d="M15.8496759,15.9270926 L15.8496759,13.4797315 C15.8496759,10.1260741 18.5660741,7.40740741 21.9159167,7.40740741 L34.2592593,7.40740741 L34.2592593,15.9459259 L34.2592593,15.9459259 C35.3142593,16.150963 36.1111111,17.0858148 36.1111111,18.1975463 L36.1111111,18.8394907 C36.1111111,19.9658981 35.3080833,20.9026389 34.235537,21.0962222 C33.8943519,25.8659907 29.9152222,29.6296296 25.054463,29.6296296 C20.2008611,29.6296296 16.2246481,25.8670278 15.8747037,21.1130093 C14.7539352,20.9641204 13.8888889,19.9978148 13.8888889,18.8394907 L13.8888889,18.1975463 C13.8888889,17.0415 14.7347315,16.0852407 15.8496759,15.9270926 L15.8496759,15.9270926 Z" id="Stroke-3"></path>
                            <path d="M20.6519907,29.6296296 L18.4868426,34.0488241 L13.3323333,34.0488241 C10.6871111,34.0488241 8.33333333,36.2739074 8.33333333,38.8888889 L8.33333333,43.6237407 M41.6666667,43.5185185 L41.6666667,38.7836667 C41.6666667,36.1740093 39.5267222,34.0488241 36.886963,34.0488241 L31.0956481,34.0488241 L28.9305,29.6296296" id="Stroke-5"></path>
                            <path d="M45,10.1851852 L45,0.925925926" id="Stroke-7"></path>
                            <path d="M50,5 L40.7407407,5" id="Stroke-9"></path>
                        </g>
                    </g>
                </g>
            </g>
        </g>
    </g>
</svg>