<?xml version="1.0" encoding="UTF-8" standalone="no"?>
<svg width="22px" height="22px" viewBox="0 0 22 22" version="1.1" xmlns="http://www.w3.org/2000/svg" xmlns:xlink="http://www.w3.org/1999/xlink">
    <!-- Generator: Sketch 39.1 (31720) - http://www.bohemiancoding.com/sketch -->
    <title>Fill 1</title>
    <desc>Created with Sketch.</desc>
    <defs></defs>
    <g id="Admin" stroke="none" stroke-width="1" fill="none" fill-rule="evenodd">
        <g id="Deals" transform="translate(-211.000000, -475.000000)" fill="#77D4B6">
            <path d="M232.079049,482.976071 C229.811665,475.416315 226.535745,473.652873 218.975958,475.920945 C211.416898,478.188316 209.652773,481.464263 211.92083,489.024022 C214.188886,496.583096 217.464833,498.347235 225.023924,496.079165 C232.583679,493.811094 234.347135,490.535161 232.079049,482.976071 L232.079049,482.976071 Z M228.255866,487.883464 L226.830678,488.360594 L227.32429,489.835965 C227.524361,490.432719 227.202602,491.078969 226.605178,491.279027 C226.475236,491.323032 226.343227,491.341594 226.213982,491.338152 C225.747843,491.325773 225.318155,491.027398 225.162116,490.559902 L224.66778,489.085214 L221.728727,490.069719 L222.222338,491.544407 C222.42241,492.141844 222.100646,492.788096 221.503227,492.988156 C221.373284,493.031474 221.241271,493.050035 221.11203,493.046594 C220.645919,493.034915 220.216231,492.73584 220.060164,492.269032 L219.565856,490.793657 L218.140641,491.27146 C218.010726,491.314782 217.878016,491.33334 217.748775,491.329902 C217.283337,491.318219 216.85365,491.019161 216.696909,490.551652 C216.496833,489.954902 216.818596,489.308647 217.41602,489.108589 L218.841905,488.630772 L217.893851,485.8017 L216.468664,486.279518 C216.338721,486.322839 216.206712,486.341397 216.07677,486.33796 C215.611333,486.326263 215.181643,486.027205 215.024902,485.55971 C214.824829,484.96296 215.147263,484.316705 215.744016,484.116647 L217.1699,483.63883 L216.675592,482.164142 C216.475516,481.566705 216.797279,480.920455 217.394703,480.72108 C217.992155,480.521008 218.638418,480.842753 218.838463,481.440205 L219.332101,482.914892 L222.271852,481.930388 L221.777544,480.4557 C221.577467,479.858262 221.899905,479.212012 222.496655,479.011941 C223.094106,478.811878 223.740343,479.134329 223.940414,479.731079 L224.434053,481.20645 L225.85991,480.728633 C226.457361,480.528575 227.102928,480.851008 227.302972,481.447758 C227.503044,482.045195 227.181285,482.691446 226.583861,482.891517 L225.158674,483.368638 L226.106058,486.198393 L227.531915,485.720589 C228.128665,485.5212 228.774933,485.842964 228.974977,486.439714 C229.175049,487.037152 228.85329,487.683402 228.255866,487.883464 L228.255866,487.883464 Z M220.056525,485.07757 L221.003881,487.906624 L223.943632,486.922133 L222.99628,484.093066 L220.056525,485.07757 L220.056525,485.07757 Z" id="Fill-1"></path>
        </g>
    </g>
</svg>