<?xml version="1.0" encoding="utf-8"?>
<!-- Generator: Adobe Illustrator 17.0.0, SVG Export Plug-In . SVG Version: 6.00 Build 0)  -->
<!DOCTYPE svg PUBLIC "-//W3C//DTD SVG 1.1//EN" "http://www.w3.org/Graphics/SVG/1.1/DTD/svg11.dtd">
<svg version="1.1" id="Calque_1" xmlns="http://www.w3.org/2000/svg" xmlns:xlink="http://www.w3.org/1999/xlink" x="0px" y="0px"
	 width="30px" height="30px" viewBox="0 0 30 30" enable-background="new 0 0 30 30" xml:space="preserve">
<title>Slack-black</title>
<desc>Created with Sketch.</desc>
<g id="Icons">
	<g id="Black" transform="translate(-600.000000, -460.000000)">
		<path id="Slack" fill="#FFFFFF" d="M628.744,470.877c-3.092-10.309-7.559-12.713-17.868-9.621
			c-10.308,3.092-12.713,7.559-9.621,17.868c3.093,10.308,7.56,12.713,17.868,9.621
			C629.432,485.652,631.837,481.185,628.744,470.877 M623.531,477.569l-1.943,0.651l0.673,2.012
			c0.273,0.814-0.166,1.695-0.981,1.968c-0.177,0.06-0.357,0.085-0.533,0.081c-0.636-0.017-1.222-0.424-1.434-1.061l-0.674-2.011
			l-4.008,1.342l0.673,2.011c0.273,0.815-0.166,1.696-0.981,1.969c-0.177,0.059-0.357,0.084-0.533,0.08
			c-0.636-0.016-1.221-0.424-1.434-1.06l-0.674-2.012l-1.943,0.652c-0.177,0.059-0.358,0.084-0.534,0.08
			c-0.635-0.016-1.221-0.424-1.434-1.061c-0.273-0.814,0.166-1.695,0.981-1.968l1.944-0.652l-1.293-3.858l-1.943,0.652
			c-0.177,0.059-0.357,0.084-0.534,0.08c-0.635-0.016-1.221-0.424-1.434-1.061c-0.273-0.814,0.167-1.695,0.981-1.968l1.944-0.652
			l-0.674-2.011c-0.273-0.815,0.166-1.696,0.981-1.968c0.815-0.273,1.696,0.166,1.969,0.981l0.673,2.011l4.009-1.342l-0.674-2.011
			c-0.273-0.815,0.167-1.696,0.981-1.969c0.815-0.273,1.696,0.167,1.969,0.981l0.673,2.012l1.944-0.652
			c0.815-0.273,1.695,0.167,1.968,0.981c0.273,0.815-0.166,1.696-0.981,1.969l-1.943,0.651l1.292,3.859l1.944-0.652
			c0.814-0.272,1.695,0.167,1.968,0.981C624.784,476.415,624.345,477.297,623.531,477.569z M612.35,473.743l1.292,3.858l4.009-1.342
			l-1.292-3.858L612.35,473.743z"/>
	</g>
</g>
</svg>
