<?xml version="1.0" encoding="UTF-8" standalone="no"?>
<svg width="30px" height="31px" viewBox="0 0 30 31" version="1.1" xmlns="http://www.w3.org/2000/svg" xmlns:xlink="http://www.w3.org/1999/xlink">
    <!-- Generator: Sketch 3.8.1 (29687) - http://www.bohemiancoding.com/sketch -->
    <title>slack-icon</title>
    <desc>Created with Sketch.</desc>
    <defs>
        <polygon id="path-1" points="30 29.9828749 30 0 0.0171258005 0 0.0171258005 29.9828749"></polygon>
    </defs>
    <g id="Final" stroke="none" stroke-width="1" fill="none" fill-rule="evenodd">
        <g id="Deals-signup" transform="translate(-624.000000, -541.000000)">
            <g id="Group" transform="translate(195.000000, 364.000000)">
                <g id="signup-button" transform="translate(409.000000, 157.000000)">
                    <g id="Twitter" transform="translate(20.000000, 20.000000)">
                        <g id="slack-icon">
                            <g id="Page-1" transform="translate(0.000000, 0.400000)">
                                <mask id="mask-2" fill="white">
                                    <use xlink:href="#path-1"></use>
                                </mask>
                                <g id="Clip-2"></g>
                                <path d="M19.4508197,1.8442623 C18.9836066,0.442622951 17.4836066,-0.319672131 16.0819672,0.12295082 C14.6803279,0.590163934 13.9180328,2.09016393 14.3606557,3.49180328 L21.2704918,24.7377049 C21.7377049,26.0409836 23.1639344,26.7786885 24.5163934,26.3852459 C25.942623,25.9672131 26.8032787,24.4672107 26.3360656,23.0901615 C26.3360656,23.0409836 19.4508197,1.8442623 19.4508197,1.8442623 L19.4508197,1.8442623 Z" id="Fill-1" fill="#000" mask="url(#mask-2)"></path>
                                <path d="M8.75409836,5.33606557 C8.28688525,3.93442623 6.78688525,3.17213115 5.3852459,3.6147541 C3.98360656,4.05737705 3.22131148,5.58196721 3.66393443,6.98360656 L10.5737705,28.2295089 C11.0409836,29.5327884 12.4672131,30.2704933 13.8196721,29.8770492 C15.2459016,29.4590171 16.1065574,27.9590157 15.6393443,26.5819672 C15.6393443,26.5327869 8.75409836,5.33606557 8.75409836,5.33606557 L8.75409836,5.33606557 Z" id="Fill-3" fill="#000" mask="url(#mask-2)"></path>
                                <path d="M28.1557377,19.4508197 C29.557377,18.9836066 30.3196721,17.4836066 29.8770492,16.0819672 C29.4098361,14.6803279 27.9098361,13.9180328 26.5081967,14.3606557 L5.23770492,21.2704918 C3.93442623,21.7377049 3.19672131,23.1639344 3.59016393,24.5163934 C4.00819672,25.942623 5.50819672,26.8032787 6.8852459,26.3360656 C6.93442623,26.3360656 28.1557377,19.4508197 28.1557377,19.4508197 L28.1557377,19.4508197 Z" id="Fill-4" fill="#000" mask="url(#mask-2)"></path>
                                <path d="M9.66393443,25.4508197 C11.0409836,25.0081967 12.8360656,24.4180328 14.7540984,23.8032787 C14.3114754,22.4262295 13.7213115,20.6311475 13.1065574,18.7131172 L8.01639344,20.3606557 L9.66393443,25.4508197 L9.66393443,25.4508197 Z" id="Fill-5" fill="#000" mask="url(#mask-2)"></path>
                                <path d="M20.3606557,21.9836066 C22.278691,21.3688525 24.0737705,20.7786885 25.4508197,20.3360656 C25.0081967,18.9590189 24.4180328,17.1639344 23.8032787,15.2459016 L18.7131172,16.8934426 L20.3606557,21.9836066 L20.3606557,21.9836066 Z" id="Fill-6" fill="#000" mask="url(#mask-2)"></path>
                                <path d="M24.6639344,8.75409836 C26.0655738,8.28688525 26.8278689,6.78688525 26.3852459,5.3852459 C25.942623,3.98360656 24.4180328,3.22131148 23.0163959,3.66393443 L1.7704918,10.5737705 C0.467213115,11.0409836 -0.270491803,12.4672131 0.12295082,13.8196721 C0.540983607,15.2459016 2.04098361,16.1065574 3.41803279,15.6393443 C3.46721311,15.6393443 24.6639344,8.75409836 24.6639344,8.75409836 L24.6639344,8.75409836 Z" id="Fill-7" fill="#000" mask="url(#mask-2)"></path>
                                <path d="M6.19672131,14.7540984 C7.57377049,14.3114754 9.36885246,13.7213115 11.2868852,13.1065574 C10.6721311,11.1885246 10.0819672,9.39344262 9.63934426,8.01639344 L4.54918033,9.66393443 L6.19672131,14.7540984 L6.19672131,14.7540984 Z" id="Fill-8" fill="#000" mask="url(#mask-2)"></path>
                                <path d="M16.8934426,11.2622951 C18.8114754,10.647541 20.6065574,10.057377 21.9836041,9.6147541 C21.36885,7.69672131 20.7786861,5.90163934 20.3360656,4.52459016 L15.2459016,6.19672131 L16.8934426,11.2622951 L16.8934426,11.2622951 Z" id="Fill-9" fill="#000" mask="url(#mask-2)"></path>
                            </g>
                        </g>
                    </g>
                </g>
            </g>
        </g>
    </g>
</svg>