<?xml version="1.0" encoding="UTF-8" standalone="no"?>
<svg width="30px" height="25px" viewBox="0 0 30 25" version="1.1" xmlns="http://www.w3.org/2000/svg" xmlns:xlink="http://www.w3.org/1999/xlink">
    <!-- Generator: Sketch 3.7.1 (28215) - http://www.bohemiancoding.com/sketch -->
    <title>Twitter</title>
    <desc>Created with Sketch.</desc>
    <defs>
        <polygon id="path-1" points="0 24.3956044 30 24.3956044 30 0 0 0"></polygon>
    </defs>
    <g id="Landing" stroke="none" stroke-width="1" fill="none" fill-rule="evenodd">
        <g id="BDC-2.2" transform="translate(-302.000000, -626.000000)">
            <g id="Group-2" transform="translate(195.000000, 225.000000)">
                <g id="Share" transform="translate(58.000000, 400.000000)">
                    <g id="Twitter" transform="translate(0.000000, 1.000000)">
                        <g transform="translate(49.000000, 0.000000)">
                            <mask id="mask-2" fill="white">
                                <use xlink:href="#path-1"></use>
                            </mask>
                            <g id="Clip-2"></g>
                            <path d="M30.0425934,2.88994505 C28.9327692,3.38442857 27.746022,3.71407692 26.5043297,3.85692308 C27.778989,3.09872527 28.756956,1.89 29.2184615,0.450527473 C28.0207363,1.15378022 26.7021209,1.67023077 25.2956154,1.94494505 C24.1747912,0.747208791 22.5704835,0 20.8013626,0 C17.394956,0 14.6368681,2.75808791 14.6368681,6.16448352 C14.6368681,6.64797802 14.6918132,7.12048352 14.8016923,7.571 C9.67011538,7.30728571 5.13190989,4.85686813 2.08812527,1.1318022 C1.56068132,2.04384615 1.25300659,3.09872527 1.25300659,4.23052747 C1.25300659,6.37326374 2.34085824,8.25228571 4.00010549,9.36210989 C2.98917253,9.32914286 2.04417143,9.05443956 1.20905385,8.59292308 L1.20905385,8.66984615 C1.20905385,11.6586813 3.32981319,14.1420615 6.15382967,14.7134571 C5.63737582,14.8563066 5.08795604,14.9332253 4.52754835,14.9332253 C4.13196593,14.9332253 3.74737253,14.8892725 3.36277802,14.8233418 C4.14295385,17.2737538 6.42853956,19.0538725 9.1206967,19.1088143 C7.01092418,20.7570736 4.35173407,21.7460286 1.46178681,21.7460286 C0.967309011,21.7460286 0.472831319,21.7130637 -0.0106579253,21.658122 C2.71446374,23.4052758 5.95603956,24.4271962 9.43935934,24.4271962 C20.7793846,24.4271962 26.9768352,15.0321198 26.9768352,6.88972527 C26.9768352,6.626 26.9658462,6.35128571 26.9548571,6.08757143 C28.1745714,5.20849451 29.2184615,4.12064835 30.0425934,2.88994505 L30.0425934,2.88994505 Z" id="Fill-1" fill="#55ACEE" mask="url(#mask-2)"></path>
                        </g>
                    </g>
                </g>
            </g>
        </g>
    </g>
</svg>