<?xml version="1.0" encoding="utf-8"?>
<!-- Generator: Adobe Illustrator 17.0.0, SVG Export Plug-In . SVG Version: 6.00 Build 0)  -->
<!DOCTYPE svg PUBLIC "-//W3C//DTD SVG 1.1//EN" "http://www.w3.org/Graphics/SVG/1.1/DTD/svg11.dtd">
<svg version="1.1" id="Calque_1" xmlns="http://www.w3.org/2000/svg" xmlns:xlink="http://www.w3.org/1999/xlink" x="0px" y="0px"
	 width="115px" height="26px" viewBox="0 0 115 26" enable-background="new 0 0 115 26" xml:space="preserve">
<g id="atomic" transform="translate(33.000000, 0.300003)">
	<path id="Fill-1" fill="#3A4455" d="M3.921,12.748l3.375-0.501c0.78-0.111,1.032-0.501,1.032-0.974
		c0-0.974-0.753-1.782-2.315-1.782c-1.618,0-2.511,1.03-2.622,2.227l-3.292-0.696c0.223-2.143,2.204-4.509,5.886-4.509
		c4.351,0,5.969,2.45,5.969,5.205v6.736c0,0.724,0.084,1.698,0.168,2.171H8.719c-0.084-0.362-0.14-1.114-0.14-1.642
		c-0.697,1.086-2.009,2.032-4.045,2.032c-2.929,0-4.714-1.976-4.714-4.119C-0.179,14.445,1.633,13.081,3.921,12.748L3.921,12.748z
		 M8.328,15.086v-0.613l-3.096,0.474c-0.949,0.139-1.702,0.668-1.702,1.725c0,0.807,0.586,1.587,1.785,1.587
		C6.877,18.259,8.328,17.507,8.328,15.086L8.328,15.086z"/>
	<path id="Fill-2" fill="#3A4455" d="M19.068,6.93h2.761v3.284h-2.761v5.734c0,1.197,0.558,1.587,1.618,1.587
		c0.446,0,0.948-0.056,1.143-0.111v3.062c-0.335,0.139-1.004,0.334-2.092,0.334c-2.678,0-4.351-1.586-4.351-4.23v-6.375h-2.483V6.93
		H13.6c1.45,0,2.12-0.947,2.12-2.171V2.838h3.348V6.93"/>
	<path id="Fill-3" fill="#3A4455" d="M37.086,13.777c0,4.204-3.096,7.265-7.196,7.265s-7.196-3.061-7.196-7.265
		c0-4.231,3.096-7.265,7.196-7.265S37.086,9.547,37.086,13.777L37.086,13.777z M33.376,13.777c0-2.588-1.673-3.896-3.486-3.896
		c-1.813,0-3.486,1.308-3.486,3.896c0,2.561,1.674,3.897,3.486,3.897C31.703,17.674,33.376,16.366,33.376,13.777L33.376,13.777z"/>
	<path id="Fill-4" fill="#3A4455" d="M38.9,20.625V6.93h3.543V8.6c0.753-1.336,2.51-2.06,4.016-2.06
		c1.869,0,3.375,0.807,4.072,2.283c1.088-1.67,2.539-2.283,4.352-2.283c2.538,0,4.965,1.531,4.965,5.205v8.879H56.25v-8.128
		c0-1.475-0.725-2.588-2.427-2.588c-1.59,0-2.539,1.224-2.539,2.7v8.016h-3.681v-8.128c0-1.475-0.753-2.588-2.428-2.588
		c-1.617,0-2.566,1.197-2.566,2.7v8.016H38.9"/>
	<path id="Fill-5" fill="#3A4455" d="M64.05,0.139c1.263,0,2.25,1.029,2.25,2.31c0,1.224-0.987,2.254-2.25,2.254
		c-1.235,0-2.25-1.029-2.25-2.254C61.8,1.168,62.815,0.139,64.05,0.139L64.05,0.139z M62.239,6.93h3.649v13.694h-3.649V6.93z"/>
	<path id="Fill-6" fill="#3A4455" d="M71.31,13.777c0,2.478,1.618,3.869,3.514,3.869s2.845-1.252,3.152-2.31l3.263,1.086
		c-0.614,2.282-2.761,4.62-6.415,4.62c-4.045,0-7.224-3.061-7.224-7.265c0-4.231,3.124-7.265,7.113-7.265
		c3.738,0,5.858,2.31,6.443,4.621l-3.319,1.113c-0.335-1.141-1.2-2.31-3.04-2.31C72.899,9.937,71.31,11.3,71.31,13.777"/>
</g>
<g id="Logomark">
	<path id="Left-2" fill="#4985FF" d="M9.165,2.495L0.656,17.45c-1.355,2.381,7.623,6.597,8.533,4.998l8.509-14.954"/>
	<path id="Right-2" fill="#8EFAFF" d="M9.254,7.494l8.509,14.954c0.91,1.599,9.887-2.618,8.532-4.998L17.786,2.495
		C16.876,0.896,7.899,5.113,9.254,7.494z"/>
	<path id="Bottom-2" fill="#FC436F" d="M4.926,15c-2.709,0-2.709,9.997,0,9.997h17.018c2.709,0,2.709-9.997,0-9.997H4.926z"/>
	<path id="Bottom-right-2" fill="#FA2B61" d="M13.583,15l4.238,7.477c0.014,0.024,0.017,0.03,0.021,0.036
		c0.922,1.581,2.571,2.46,4.26,2.46c0.834,0,1.678-0.214,2.449-0.666c1.576-0.923,2.457-2.612,2.457-4.343c0-0.024,0-0.048,0-0.072
		c0-0.022-0.001-0.045-0.001-0.067c0-0.012-0.001-0.025-0.001-0.037c-0.001-0.019-0.001-0.037-0.002-0.055
		c-0.004-0.089-0.012-0.178-0.021-0.268c-0.251-2.371-2.153-4.26-4.508-4.45C22.437,15.013,22.087,15,22.084,15H13.583z"/>
	<path id="Bottom-left-3" fill="#4275F4" d="M4.924,15c-0.039,0-0.353,0.013-0.375,0.014c-2.37,0.19-4.272,2.079-4.523,4.451
		c-0.015,0.142-0.024,0.284-0.026,0.427c-0.025,1.756,0.859,3.479,2.457,4.415c0.791,0.456,1.625,0.666,2.449,0.666
		c1.707,0,3.371-0.897,4.281-2.495l4.246-7.463L4.924,15z"/>
	<path id="Top-2" fill="#83E7FF" d="M11.057,0.665C8.711,2.04,7.899,5.112,9.254,7.493l4.252,7.473l4.26-7.48
		c1.266-2.225,0.64-5.053-1.362-6.536c-0.114-0.084-0.231-0.163-0.351-0.236C15.283,0.247,14.399,0,13.503,0
		C12.67,0,11.827,0.214,11.057,0.665z"/>
</g>
</svg>
