<?xml version="1.0" encoding="UTF-8" standalone="no"?>
<svg width="149px" height="50px" viewBox="0 0 149 50" version="1.1" xmlns="http://www.w3.org/2000/svg" xmlns:xlink="http://www.w3.org/1999/xlink">
    <!-- Generator: Sketch 3.8.3 (29802) - http://www.bohemiancoding.com/sketch -->
    <title>bulkclassic</title>
    <desc>Created with Sketch.</desc>
    <defs>
        <polygon id="path-1" points="37.1358043 0.0567086731 0.0260934025 0.0567086731 0.0260934025 49.177613 37.1358043 49.177613 37.1358043 0.0567086731"></polygon>
    </defs>
    <g id="Partenaires" stroke="none" stroke-width="1" fill="none" fill-rule="evenodd">
        <g id="Partners" transform="translate(-646.000000, -329.000000)">
            <g id="partners" transform="translate(196.000000, 164.000000)">
                <g id="logos" transform="translate(450.000000, 165.000000)">
                    <g id="bulkclassic">
                        <g id="Group-5">
                            <g id="Group-3" transform="translate(1.223128, 0.313936)">
                                <mask id="mask-2" fill="white">
                                    <use xlink:href="#path-1"></use>
                                </mask>
                                <g id="Clip-2"></g>
                                <path d="M9.45381764,9.58346924 C10.947146,7.49266123 12.8552261,5.77027428 15.1450704,4.45077835 C15.9578947,3.98228317 16.7733136,3.59347665 17.5676056,3.26767976 C15.9771683,4.94114159 14.9315789,7.14536694 14.7229059,9.58346924 L9.45381764,9.58346924 Z M25.0687176,17.5034099 C25.0687176,20.8403262 22.4927354,23.5830986 19.2314307,23.8384729 L18.7292068,23.3358784 L17.4041512,24.660934 L18.7292068,25.9859896 L19.2469978,25.4681987 C22.5005189,25.7313566 25.0687176,28.4704225 25.0687176,31.8021497 C25.0687176,35.2821349 22.2477391,38.1146034 18.7725723,38.1353595 L16.2677539,38.1353595 L16.2677539,26.0267606 L16.2673832,26.0267606 L16.2673832,25.9422535 L14.9641957,24.639066 L16.2673832,23.3358784 L16.2673832,23.3173462 L16.2677539,23.3173462 L16.2677539,11.167235 L18.7347665,11.167235 L18.7347665,11.1694589 C22.2273536,11.1694589 25.0687176,14.0108228 25.0687176,17.5034099 L25.0687176,17.5034099 Z M17.6865827,46.093106 C15.613195,45.2739807 13.3808006,44.0115641 11.407487,42.0638251 C10.6780578,41.3440326 10.0157153,40.5627131 9.42008895,39.7213491 L14.7280949,39.7213491 C14.9564122,42.1924388 16.0438844,44.4211268 17.6865827,46.093106 L17.6865827,46.093106 Z M5.48606375,25.2613788 L5.48606375,23.973017 C5.48606375,18.9207561 6.4823573,14.6142328 8.44418087,11.167235 L8.47346182,11.167235 L8.47346182,38.1353595 L8.41860638,38.1353595 C6.47086731,34.678725 5.48606375,30.3699778 5.48606375,25.2613788 L5.48606375,25.2613788 Z M14.6817643,22.678725 L12.7214233,24.639066 L14.6817643,26.599407 L14.6817643,38.1353595 L10.0524092,38.1353595 L10.0524092,11.167235 L14.6817643,11.167235 L14.6817643,22.678725 Z M31.9426983,11.183914 L37.1358043,11.183914 L37.1358043,9.59792439 L35.2681245,9.59792439 C35.0872498,7.11979244 34.0346182,4.81734618 32.2525574,3.04862861 C30.4760563,1.28510007 28.175834,0.251742031 25.7014085,0.0838398814 L25.7014085,0.066790215 L25.4452928,0.066790215 C25.2684952,0.0590066716 25.0909563,0.0556708673 24.9123054,0.0567828021 C24.5257228,0.0597479615 24.1446998,0.0860637509 23.7688658,0.131653076 C21.9412157,0.298443291 18.2010378,0.89925871 14.4219422,3.06048925 C11.5831727,4.68391401 9.28109711,6.87664937 7.56797628,9.58346924 L1.61208302,9.58346924 L1.61208302,7.76100815 L0.0260934025,7.76100815 L0.0260934025,12.9544848 L1.61208302,12.9544848 L1.61208302,11.167235 L6.66582654,11.167235 C4.84521868,14.712083 3.9204596,19.0123054 3.9204596,23.973017 L3.9204596,25.2613788 C3.9204596,30.279911 4.83261675,34.5860638 6.6391401,38.1353595 L1.61208302,38.1353595 L1.61208302,36.3062268 L0.0260934025,36.3062268 L0.0260934025,41.4993328 L1.61208302,41.4993328 L1.61208302,39.7213491 L7.53684211,39.7213491 C8.33113417,40.985619 9.25478132,42.139066 10.3077835,43.1783543 C15.5057079,48.3088213 22.1917717,49.0475167 24.2836916,49.1512973 C24.4919941,49.1657524 24.7010378,49.1757598 24.9123054,49.1772424 C24.9389918,49.177613 24.964937,49.177613 24.9912528,49.177613 C25.1921423,49.177613 25.3919199,49.1702001 25.5909563,49.1587102 L25.7114159,49.1572276 L25.7114159,49.1498147 C28.1795404,48.9808006 30.4782802,47.9463306 32.2525574,46.1853966 C34.0512973,44.4 35.1072646,42.0708673 35.2733136,39.5660489 L37.1358043,39.5660489 L37.1358043,37.9800593 L31.9426983,37.9800593 L31.9426983,39.5660489 L33.6836175,39.5660489 C33.5201631,41.6446256 32.6313566,43.5745738 31.1354337,45.059748 C29.4730912,46.7094885 27.2629355,47.610897 24.924166,47.5912528 C20.4749444,47.5582654 16.8003706,44.1094144 16.3218681,39.7213491 L18.7347665,39.7213491 L18.7347665,39.7224611 C18.7473684,39.7224611 18.7599703,39.7213491 18.7725723,39.7213491 L19.5583395,39.7213491 L19.5583395,39.6794663 C23.5398073,39.2658265 26.6547072,35.8911045 26.6547072,31.8021497 C26.6547072,28.660934 24.8270571,25.9404003 22.1821349,24.6527798 C24.8270571,23.3651594 26.6547072,20.6446256 26.6547072,17.5034099 C26.6547072,13.1802076 23.1724981,9.65722758 18.8656042,9.58680504 L18.8656042,9.58346924 L18.7395849,9.58346924 L18.7347665,9.58346924 L16.3129726,9.58346924 C16.7592291,5.16167532 20.4508525,1.67575982 24.924166,1.64277242 C27.2647887,1.62164566 29.4734618,2.52453669 31.1354337,4.17427724 C32.6146775,5.64277242 33.5008895,7.5460341 33.6784285,9.59792439 L31.9426983,9.59792439 L31.9426983,11.183914 Z" id="Fill-1" fill="#282D63" mask="url(#mask-2)"></path>
                            </g>
                            <polygon id="Fill-4" fill="#282D63" points="2.65418829 39.2708302 1.32727947 40.5977391 0 39.2708302 1.32727947 37.9439214"></polygon>
                            <polygon id="Fill-6" fill="#282D63" points="2.65418829 10.6792809 1.32727947 12.0061898 0 10.6792809 1.32727947 9.35237213"></polygon>
                        </g>
                        <g id="Group-6" transform="translate(49.000000, 10.000000)" fill="#282D63">
                            <path d="M48.3189474,29.8679211 C47.4236842,29.7700263 46.7463158,29.0160789 46.7463158,28.1097632 L46.7463158,21.0873947 L48.2534211,21.0873947 L48.2534211,27.9455526 C48.2534211,28.3718684 48.7776316,28.6450263 49.1707895,28.6450263 L48.3189474,29.8679211 Z M45.8834211,29.8789737 L45.7310526,29.8789737 C44.0384211,29.9002895 42.8478947,28.2408158 42.8368421,26.5481842 L42.8368421,24.2113421 C43.71,24.5168684 44.3439474,25.2810789 44.3439474,26.0563421 L44.3439474,26.5481842 C44.3439474,27.5421316 45.1515789,28.5352895 46.1344737,28.5352895 L46.8228947,28.5352895 L45.8834211,29.8789737 Z M43.9507895,24.2113421 L42.8368421,24.2113421 C43.2410526,24.1450263 43.5465789,23.7195 43.5465789,23.2829211 C43.5465789,22.6931842 43.0547368,22.2779211 42.4871053,22.2779211 L43.3389474,21.0439737 C44.2239474,21.0873947 45.0205263,22.0379211 45.0205263,22.9876579 C45.0205263,23.5884474 44.595,24.2002895 43.9507895,24.2113421 L43.9507895,24.2113421 Z" id="Fill-8"></path>
                            <polygon id="Fill-10" points="57.7341316 29.8242632 53.3857105 29.8242632 53.3857105 20.8582105 54.8928158 23.0095263 54.8928158 28.5358421 58.6404474 28.5358421"></polygon>
                            <path d="M66.4539474,21.4727368 L67.3602632,22.8085263 C66.5834211,22.8085263 65.9107895,23.3761579 65.9107895,24.183 C65.9107895,24.7806316 66.3292105,25.3632632 66.8818421,25.4532632 L65.3581579,25.4532632 C65.3581579,25.4532632 64.2221053,24.6416842 64.65,23.1961579 C65.0778947,21.7514211 66.4539474,21.4727368 66.4539474,21.4727368" id="Fill-12"></path>
                            <path d="M65.3466316,25.4340789 L67.7821579,29.8788158 L66.1108421,29.8788158 L63.6761053,25.4340789 L65.3466316,25.4340789 Z M63.6761053,29.8243421 L62.169,29.8243421 L62.169,20.8582895 L63.6761053,23.0096053 L63.6761053,29.8243421 Z" id="Fill-14"></path>
                            <path d="M36.3918947,29.8788947 C36.1842632,29.8788947 35.8676842,29.8567895 35.6711053,29.8023158 L34.7758421,28.536 L35.9987368,28.536 C36.7195263,28.536 37.2871579,27.9462632 37.2871579,27.3667895 L37.2871579,25.4562632 C38.1721579,25.7838947 38.7942632,26.6246842 38.7942632,27.5531053 C38.7942632,28.776 37.7237368,29.8788947 36.3918947,29.8788947 L36.3918947,29.8788947 Z M34.8626842,27.9786316 C34.8626842,28.9504737 34.1971579,29.7588947 33.3121579,29.8678421 L32.4713684,28.656 C32.8968947,28.656 33.3555789,28.3717895 33.3555789,27.9131053 L33.3555789,24.4946842 L34.8626842,22.3433684 L34.8626842,27.9786316 Z" id="Fill-16"></path>
                            <path d="M37.2877895,25.4408684 L37.2877895,23.7671842 C37.2877895,22.8853421 36.8014737,22.3721842 35.8927895,22.3721842 L34.8412105,22.3761316 L35.7427895,21.0774474 C35.8943684,21.0624474 36.0009474,21.0474474 36.1225263,21.0474474 C37.3233158,21.0474474 38.3883158,21.6403421 38.8596316,22.7803421 L37.2877895,25.4408684 Z" id="Fill-18"></path>
                            <path d="M0.873315789,4.01328947 C0.873315789,1.70644737 2.61884211,0.237236842 4.55778947,0.237236842 C6.55831579,0.237236842 7.58857895,1.46171053 7.87515789,2.63565789 L6.54805263,3.05407895 C6.37436842,2.36013158 5.81305263,1.59434211 4.55778947,1.59434211 C3.47621053,1.59434211 2.33305263,2.37039474 2.33305263,4.01328947 C2.33305263,5.55434211 3.41463158,6.40144737 4.57831579,6.40144737 C5.81305263,6.40144737 6.41542105,5.59539474 6.60884211,4.92197368 L7.92568421,5.31986842 C7.65015789,6.43223684 6.60884211,7.77907895 4.57831579,7.77907895 C2.55726316,7.77907895 0.873315789,6.32013158 0.873315789,4.01328947" id="Fill-20"></path>
                            <polygon id="Fill-22" points="18.2863421 7.62615789 18.2863421 0.389842105 19.6947632 0.389842105 19.6947632 6.27931579 22.9197632 6.27931579 22.9197632 7.62615789"></polygon>
                            <path d="M35.1073421,4.68678947 L37.1078684,4.68678947 L36.1076053,1.95126316 L35.1073421,4.68678947 Z M37.5768158,5.97284211 L34.6376053,5.97284211 L34.0352368,7.626 L32.5455,7.626 L35.3212895,0.389684211 L36.9547105,0.389684211 L39.7099737,7.626 L38.1791842,7.626 L37.5768158,5.97284211 Z" id="Fill-24"></path>
                            <path d="M53.3876842,2.50263158 C53.3158421,2.10473684 52.9897895,1.48184211 52.0708421,1.48184211 C51.3871579,1.48184211 50.9379474,1.92078947 50.9379474,2.40078947 C50.9379474,2.79868421 51.1929474,3.11526316 51.7242632,3.21710526 L52.7347895,3.41131579 C54.0508421,3.66631579 54.7550526,4.52368421 54.7550526,5.54368421 C54.7550526,6.65684211 53.8266316,7.77947368 52.1426842,7.77947368 C50.2242632,7.77947368 49.3763684,6.54473684 49.2642632,5.51368421 L50.5708421,5.16631579 C50.6316316,5.88078947 51.1321579,6.52342105 52.1529474,6.52342105 C52.9076842,6.52342105 53.3268947,6.14605263 53.3268947,5.63605263 C53.3268947,5.21763158 53.0103158,4.89078947 52.449,4.77868421 L51.4384737,4.575 C50.2850526,4.33973684 49.5397895,3.59447368 49.5397895,2.50263158 C49.5397895,1.21657895 50.6932105,0.236842105 52.0605789,0.236842105 C53.8163684,0.236842105 54.4897895,1.29789474 54.6532105,2.115 L53.3876842,2.50263158 Z" id="Fill-26"></path>
                            <path d="M68.7390789,2.50263158 C68.6672368,2.10473684 68.3411842,1.48184211 67.4222368,1.48184211 C66.7385526,1.48184211 66.2893421,1.92078947 66.2893421,2.40078947 C66.2893421,2.79868421 66.5443421,3.11526316 67.0756579,3.21710526 L68.0861842,3.41131579 C69.4022368,3.66631579 70.1064474,4.52368421 70.1064474,5.54368421 C70.1064474,6.65684211 69.1780263,7.77947368 67.4940789,7.77947368 C65.5748684,7.77947368 64.7277632,6.54473684 64.6156579,5.51368421 L65.9222368,5.16631579 C65.9838158,5.88078947 66.4835526,6.52342105 67.5043421,6.52342105 C68.2590789,6.52342105 68.6775,6.14605263 68.6775,5.63605263 C68.6775,5.21763158 68.3617105,4.89078947 67.8003947,4.77868421 L66.7898684,4.575 C65.6364474,4.33973684 64.8911842,3.59447368 64.8911842,2.50263158 C64.8911842,1.21657895 66.0446053,0.236842105 67.4119737,0.236842105 C69.1677632,0.236842105 69.8411842,1.29789474 70.0046053,2.115 L68.7390789,2.50263158 Z" id="Fill-28"></path>
                            <polygon id="Fill-30" points="80.4876316 7.62552632 81.9165789 7.62552632 81.9165789 0.389210526 80.4876316 0.389210526"></polygon>
                            <path d="M92.3276842,4.01328947 C92.3276842,1.70644737 94.0732105,0.237236842 96.0121579,0.237236842 C98.0126842,0.237236842 99.0429474,1.46171053 99.3287368,2.63565789 L98.0024211,3.05407895 C97.8287368,2.36013158 97.2674211,1.59434211 96.0121579,1.59434211 C94.9305789,1.59434211 93.7874211,2.37039474 93.7874211,4.01328947 C93.7874211,5.55434211 94.869,6.40144737 96.0326842,6.40144737 C97.2674211,6.40144737 97.8697895,5.59539474 98.0632105,4.92197368 L99.3800526,5.31986842 C99.1045263,6.43223684 98.0632105,7.77907895 96.0326842,7.77907895 C94.0116316,7.77907895 92.3276842,6.32013158 92.3276842,4.01328947" id="Fill-32"></path>
                        </g>
                    </g>
                </g>
            </g>
        </g>
    </g>
</svg>