<?xml version="1.0" encoding="UTF-8" standalone="no"?>
<svg width="150px" height="56px" viewBox="0 0 150 56" version="1.1" xmlns="http://www.w3.org/2000/svg" xmlns:xlink="http://www.w3.org/1999/xlink">
    <!-- Generator: Sketch 3.8.3 (29802) - http://www.bohemiancoding.com/sketch -->
    <title>CreativeMarket-Logo</title>
    <desc>Created with Sketch.</desc>
    <defs></defs>
    <g id="Partenaires" stroke="none" stroke-width="1" fill="none" fill-rule="evenodd">
        <g id="Partners" transform="translate(-871.000000, -439.000000)" fill="#8BA651">
            <g id="partners" transform="translate(196.000000, 164.000000)">
                <g id="logos" transform="translate(450.000000, 165.000000)">
                    <g id="CreativeMarket-Logo" transform="translate(225.000000, 110.000000)">
                        <g id="Layer_1">
                            <g id="Group">
                                <polygon id="Shape" points="111.482769 47.4221538 114.632308 47.4221538 114.632308 55.7381538 116.392615 55.7381538 116.392615 47.4221538 119.542154 47.4221538 119.542154 45.8058462 111.482769 45.8058462"></polygon>
                                <polygon id="Shape" points="38.6487692 50.5033846 35.6261538 45.8058462 33.7670769 45.8058462 33.7670769 55.7381538 35.4844615 55.7381538 35.4844615 48.6443077 38.5910769 53.2970769 38.6487692 53.2970769 41.784 48.6147692 41.784 55.7381538 43.5290769 55.7381538 43.5290769 45.8058462 41.6709231 45.8058462"></polygon>
                                <path d="M54.5695385,45.7347692 L50.1987692,55.7381538 L51.9867692,55.7381538 L53.0090769,53.3404615 L57.7047692,53.3404615 L58.7123077,55.7381538 L60.5566154,55.7381538 L56.1867692,45.7347692 L54.5695385,45.7347692 L54.5695385,45.7347692 Z M53.6464615,51.7943077 L55.3486154,47.8209231 L57.0664615,51.7943077 L53.6464615,51.7943077 L53.6464615,51.7943077 Z" id="Shape"></path>
                                <path d="M75.3424615,48.9701538 L75.3424615,48.9415385 C75.3424615,48.0761538 75.0443077,47.3386154 74.5190769,46.7986154 C73.8807692,46.1755385 72.9018462,45.8063077 71.6524615,45.8063077 L67.2267692,45.8063077 L67.2267692,55.7386154 L68.9713846,55.7386154 L68.9713846,52.278 L71.1567692,52.278 L73.5973846,55.7386154 L75.6678462,55.7386154 L72.9872308,51.9793846 C74.3626154,51.5806154 75.3424615,50.6007692 75.3424615,48.9701538 L75.3424615,48.9701538 Z M68.9713846,50.7295385 L68.9713846,47.3949231 L71.5112308,47.3949231 C72.8021538,47.3949231 73.5683077,47.9783077 73.5683077,49.0416923 L73.5683077,49.0689231 C73.5683077,50.076 72.7744615,50.7295385 71.5250769,50.7295385 L68.9713846,50.7295385 L68.9713846,50.7295385 Z" id="Shape"></path>
                                <path d="M148.514308,27.7056923 C147.001846,31.6703077 144.381231,33.0558462 142.548923,33.0558462 C141.100615,33.0558462 137.979692,32.7475385 136.728462,29.1230769 C141.995077,28.8886154 144.728769,23.4484615 144.728769,19.392 C144.919846,16.4206154 143.604923,13.9209231 140.021538,13.8203077 C134.755385,13.6735385 132.486462,18.7486154 131.771077,22.6398462 C131.525077,23.9866154 131.578154,25.2890769 131.723077,26.352 C128.897077,25.218 127.191692,21.0576923 129.097385,17.2384615 C129.100615,17.2310769 129.102923,17.2250769 129.106154,17.2176923 C129.111231,17.208 129.115846,17.196 129.120462,17.1863077 L129.120462,17.1853846 C129.501231,16.3721538 129.518769,15.9332308 128.816769,15.7601538 C123.987231,14.7433846 123.325846,20.6732308 123.004154,22.914 C122.644154,25.4109231 122.190462,27.9207692 121.733077,29.3187692 C121.000615,31.5553846 120.166615,30.1841538 119.711077,29.0926154 C118.451538,26.0746154 118.319077,20.5550769 118.134462,13.614 C117.979846,12.4449231 113.789538,13.8466154 113.532462,14.52 C113.166,15.516 112.314462,16.7376923 111.189692,19.8609231 C110.065385,22.9855385 108.324923,26.7406154 107.777538,28.0910769 C106.533231,31.1612308 105.841385,29.0293846 105.682154,28.3947692 C104.907231,25.2849231 105.353538,18.8270769 105.573231,12.6636923 C105.582923,10.4298462 100.861846,13.0675385 100.737692,13.7930769 C100.681846,14.1138462 98.3912308,24.4956923 95.9949231,28.5396923 C94.3010769,31.2664615 93.5192308,32.6672308 91.9629231,29.1526154 C90.7513846,26.4147692 91.1215385,18.6193846 92.6856923,8.79 C95.7770769,7.93430769 98.4424615,7.31353846 100.297385,6.95353846 C100.238769,8.42215385 101.184,10.0029231 103.411385,10.0463077 C106.008923,10.0463077 107.650615,8.88092308 107.717538,7.40861538 C107.779846,6.06092308 106.759846,4.62692308 104.870769,4.35923077 C104.710154,4.332 104.536615,4.31215385 104.341846,4.30153846 C101.899385,4.21430769 97.398,5.32846154 93.0383077,6.65261538 C93.4056923,4.50876923 93.8224615,2.29061538 94.2927692,0.0115384615 L89.0598462,2.33446154 C88.6213846,4.45984615 88.2318462,6.44953846 87.8889231,8.32015385 C84.8709231,9.35492308 83.4983077,9.86446154 82.8032308,10.1824615 C81.6590769,10.7243077 82.1155385,12.1629231 83.046,11.8103077 C84.9009231,11.1226154 85.7423077,10.8955385 87.5358462,10.3227692 C86.5190769,16.2452308 86.0501538,20.8587692 86.2338462,24.4924615 C86.2236923,24.5187692 86.2195385,24.5663077 86.2287692,24.6673846 C86.6049231,28.8807692 83.6146154,33.7961538 80.6787692,31.3310769 C79.1215385,30.0466154 78.8012308,23.7553846 79.0735385,21.3549231 C79.1787692,20.4401538 79.6472308,17.0723077 78.6706154,17.0723077 C76.542,17.0723077 75.1823077,30.8903077 71.5730769,30.8903077 C70.5410769,30.8967692 69.516,29.8924615 69.2672308,29.1503077 C67.9730769,25.2724615 69.7749231,19.1603077 72.7481538,14.5767692 C74.4184615,12.2395385 75.3138462,12.2986154 75.7606154,11.6487692 C76.5272308,10.5253846 72.7495385,8.99769231 69.4333846,12.0429231 C67.2969231,14.202 64.8706154,17.8093846 63.6166154,23.4650769 C63.54,23.8103077 63.1232308,26.7318462 63.0618462,26.9552308 C61.3993846,32.2536923 58.2041538,32.4738462 56.2444615,32.4738462 C54.1993846,32.4738462 52.5973846,31.1146154 51.3863077,29.2716923 C54.0530769,26.7512308 59.2006154,21.8870769 59.2006154,16.5669231 C59.2006154,12.2690769 57.7906154,9.012 54.0687692,9.012 C48.5312308,8.85876923 45.6812308,13.8590769 44.8583077,19.0513846 C44.2910769,22.6472308 44.9907692,26.0104615 45.2266154,27.0046154 C45.3447692,27.4993846 45.5547692,28.1187692 45.8681538,28.7903077 C42.8469231,31.7363077 39.6992308,33.312 38.7789231,28.2756923 C38.2578462,25.4224615 38.8444615,19.5849231 39.3346154,16.0287692 C39.5552308,13.794 38.3136923,13.3246154 36.1315385,12.6078462 C33.9493846,11.8938462 33.9636923,11.958 30.3687692,10.6993846 C30.3687692,7.84707692 28.9587692,4.48753846 25.7709231,5.34646154 C22.8890769,6.01061538 22.4843077,10.1907692 26.9603077,12.4181538 C26.9603077,22.0232308 23.1849231,30.6803077 14.6704615,31.6389231 L14.6704615,31.6956923 C5.21076923,31.9172308 6.06138462,20.1798462 6.06323077,19.5027692 C6.09507692,9.66184615 17.2481538,-0.506769231 17.2481538,8.20338462 C17.0649231,11.1193846 20.5463077,11.0210769 20.9713846,7.31261538 C21.3987692,3.60415385 17.766,2.004 12.4864615,2.01923077 C7.20692308,2.03446154 0.0867692308,10.3523077 0.0549230769,20.4175385 C0.0387692308,25.4492308 1.27753846,35.0995385 13.8050769,35.064 C14.7286154,35.0603077 15.5307692,34.9550769 16.2830769,34.7556923 C26.4295385,32.8347692 30.288,23.7138462 30.288,13.1201538 C31.2844615,13.4058462 31.8456923,13.5336923 32.6889231,13.8295385 C33.5312308,14.1244615 34.0883077,14.2730769 33.5903077,17.238 C33.336,19.4510769 33.0553846,23.0866154 33.0553846,24.7495385 C33.0553846,29.3215385 33.7569231,34.9403077 39.8870769,34.9403077 C43.17,34.9403077 45.7883077,33.6766154 48.0309231,31.8941538 C49.2784615,33.3004615 51.8884615,35.0787692 55.9832308,35.0787692 C60.7615385,35.0787692 63.0623077,32.1978462 64.2124615,30.3046154 C64.8941538,32.8269231 67.4076923,34.9010769 70.3278462,34.9010769 C74.0123077,34.9010769 76.8392308,31.2456923 77.1646154,30.6770769 C77.4013846,31.29 78.4347692,34.896 82.0416923,34.896 C84.5547692,34.896 86.5578462,31.2738462 87.0964615,29.5361538 C87.5529231,30.9064615 88.1806154,32.0838462 89.0104615,33.0913846 C89.0201538,33.1038462 89.0298462,33.1167692 89.0390769,33.1273846 C90.2787692,34.6398462 91.8129231,34.9878462 92.898,35.0095385 C97.8443077,35.1078462 100.895077,19.9167692 100.910769,19.998 C100.585846,29.1549231 101.197846,34.9112308 105.994154,34.9112308 C108.356308,34.9112308 109.250769,30.4615385 110.656615,26.3824615 C112.062923,22.3033846 113.373231,18.7652308 113.724,17.6123077 C113.563846,20.3672308 113.731385,24.2187692 113.881385,25.2978462 C114.641077,30.8353846 116.413385,32.3058462 118.007077,33.6729231 C121.567385,36.2916923 123.950308,33.0032308 125.641385,26.2989231 C125.968154,25.0001538 126.360462,23.8666154 126.765692,22.8715385 C127.070769,24.9323077 128.321077,27.9493846 132.328615,28.9038462 C133.047692,30.8556923 135.411692,34.7183077 142.189846,34.9075385 C146.589231,35.0312308 148.853538,32.5901538 149.492769,31.5650769 C150.133846,30.5418462 149.351538,25.1824615 148.514308,27.7056923 L148.514308,27.7056923 Z M52.9823077,13.0818462 C54.6872308,13.0818462 54.7956923,19.704 49.6476923,24.954 C48.0641538,20.5707692 50.9806154,13.0818462 52.9823077,13.0818462 L52.9823077,13.0818462 Z M138.654,17.5592308 C140.931231,17.5592308 140.163692,26.5610769 135.876462,26.6196923 C135.391385,22.9352308 137.189077,17.5592308 138.654,17.5592308 L138.654,17.5592308 Z" id="Shape"></path>
                                <polygon id="Shape" points="91.0781538 45.8058462 88.9213846 45.8058462 84.1970769 50.7996923 84.1970769 45.8058462 82.4515385 45.8058462 82.4515385 55.7381538 84.1970769 55.7381538 84.1970769 52.8576923 85.7427692 51.2695385 89.1350769 55.7381538 91.2627692 55.7381538 86.9353846 50.076"></polygon>
                                <polygon id="Shape" points="99.4643077 51.51 104.445231 51.51 104.445231 49.9481538 99.4643077 49.9481538 99.4643077 47.3672308 105.083077 47.3672308 105.083077 45.8058462 97.7187692 45.8058462 97.7187692 55.7381538 105.154615 55.7381538 105.154615 54.1776923 99.4643077 54.1776923"></polygon>
                            </g>
                        </g>
                    </g>
                </g>
            </g>
        </g>
    </g>
</svg>