<?xml version="1.0" encoding="UTF-8" standalone="no"?>
<svg width="150px" height="39px" viewBox="0 0 150 39" version="1.1" xmlns="http://www.w3.org/2000/svg" xmlns:xlink="http://www.w3.org/1999/xlink">
    <!-- Generator: Sketch 3.8.3 (29802) - http://www.bohemiancoding.com/sketch -->
    <title>dbtalks</title>
    <desc>Created with Sketch.</desc>
    <defs></defs>
    <g id="Partenaires" stroke="none" stroke-width="1" fill="none" fill-rule="evenodd">
        <g id="Partners" transform="translate(-1095.000000, -446.000000)">
            <g id="partners" transform="translate(196.000000, 164.000000)">
                <g id="logos" transform="translate(450.000000, 165.000000)">
                    <g id="dbtalks" transform="translate(450.000000, 118.000000)">
                        <g id="logo-dbtalks-4790b661">
                            <g id="Group">
                                <path d="M80.504,25.808 C78.936,25.808 77.928,26.912 77.928,28.16 C77.928,29.408 78.68,29.968 79.56,30.336 C80.536,30.752 81.576,30.896 81.576,31.568 C81.576,32.16 81.192,32.432 80.584,32.432 C79.8,32.432 79.256,31.888 78.968,31.104 L77.384,31.952 C77.784,32.944 78.904,34.128 80.584,34.128 C82.328,34.128 83.448,32.896 83.448,31.44 C83.448,29.712 81.64,29.36 80.536,28.96 C80.056,28.784 79.768,28.528 79.768,28.176 C79.768,27.728 80.12,27.504 80.504,27.504 C80.952,27.504 81.48,27.728 81.848,28.208 L83.032,27.12 C82.536,26.336 81.592,25.808 80.504,25.808 Z M69.496,22.672 L69.496,34 L71.48,34 L71.48,30.192 L74.328,34 L76.76,34 L73.32,29.648 L76.552,25.936 L74.104,25.936 L71.48,29.104 L71.48,22.672 L69.496,22.672 Z M65.016,22.672 L65.016,34 L67,34 L67,22.672 L65.016,22.672 Z M47.128,24.72 L50.232,24.72 L50.232,34 L52.312,34 L52.312,24.72 L55.416,24.72 L55.416,22.8 L47.128,22.8 L47.128,24.72 Z" id="Combined-Shape" fill="#D4162C"></path>
                                <path d="M58.136,28.432 C58.392,27.68 58.968,27.504 59.528,27.504 C60.264,27.504 60.936,27.792 60.936,28.688 L60.936,29.04 L59.592,29.04 C57.56,29.04 56.152,30.08 56.152,31.68 C56.152,33.28 57.224,34.128 58.6,34.128 C59.752,34.128 60.52,33.664 61.08,32.976 L61.288,34 L62.92,34 L62.92,29.184 C62.92,26.608 61.448,25.808 59.528,25.808 C57.88,25.808 56.712,26.72 56.456,28.048 L58.136,28.432 Z M58.232,31.648 C58.232,30.928 58.76,30.608 59.608,30.608 L60.936,30.608 L60.936,30.768 C60.936,31.808 59.976,32.432 59.064,32.432 C58.504,32.432 58.232,32.032 58.232,31.648 Z" id="Combined-Shape" fill="#D4162C"></path>
                                <path d="M51.944,15 C54.584,15 57.16,13.32 57.16,9.4 C57.16,5.48 54.584,3.8 51.944,3.8 L48.44,3.8 L48.44,15 L51.944,15 Z M50.52,13.08 L50.52,5.72 L51.288,5.72 C53.08,5.72 55.048,6.424 55.048,9.4 C55.048,12.376 53.08,13.08 51.288,13.08 L50.52,13.08 Z M66.248,10.792 C66.248,9.032 65.176,6.808 62.488,6.808 C59.72,6.808 58.616,9.064 58.616,10.968 C58.616,12.872 59.72,15.128 62.488,15.128 C64.44,15.128 65.528,14.2 66.152,12.776 L64.552,12.184 C64.072,13.016 63.512,13.432 62.6,13.432 C61.368,13.432 60.744,12.504 60.696,11.608 L66.248,11.608 L66.248,10.792 Z M62.488,8.504 C63.544,8.504 64.04,9.24 64.216,10.04 L60.744,10.04 C60.888,9.272 61.48,8.504 62.488,8.504 L62.488,8.504 Z M70.52,6.808 C68.952,6.808 67.944,7.912 67.944,9.16 C67.944,10.408 68.696,10.968 69.576,11.336 C70.552,11.752 71.592,11.896 71.592,12.568 C71.592,13.16 71.208,13.432 70.6,13.432 C69.816,13.432 69.272,12.888 68.984,12.104 L67.4,12.952 C67.8,13.944 68.92,15.128 70.6,15.128 C72.344,15.128 73.464,13.896 73.464,12.44 C73.464,10.712 71.656,10.36 70.552,9.96 C70.072,9.784 69.784,9.528 69.784,9.176 C69.784,8.728 70.136,8.504 70.52,8.504 C70.968,8.504 71.496,8.728 71.864,9.208 L73.048,8.12 C72.552,7.336 71.608,6.808 70.52,6.808 L70.52,6.808 Z M74.92,4.616 C74.92,5.336 75.464,5.896 76.2,5.896 C76.936,5.896 77.48,5.336 77.48,4.616 C77.48,3.896 76.936,3.336 76.2,3.336 C75.464,3.336 74.92,3.896 74.92,4.616 L74.92,4.616 Z M75.208,6.936 L75.208,15 L77.192,15 L77.192,6.936 L75.208,6.936 Z M79.576,9.528 C79.576,10.2 79.784,10.76 80.136,11.192 C79.544,11.544 79.144,12.12 79.144,12.888 C79.144,13.4 79.304,13.832 79.56,14.136 C79.144,14.52 78.904,15.08 78.904,15.736 C78.904,17.496 80.488,18.392 82.552,18.392 C84.344,18.392 86.216,17.592 86.216,15.608 C86.216,14.056 85.08,13.24 83.384,13.24 L81.736,13.24 C81.256,13.24 80.984,13.032 80.984,12.648 C80.984,12.392 81.128,12.184 81.368,12.04 C81.72,12.152 82.12,12.216 82.536,12.216 C84.168,12.216 85.496,11.224 85.496,9.528 C85.496,9.048 85.384,8.616 85.176,8.248 L86.328,7.672 L85.544,6.36 L84.024,7.16 C83.576,6.936 83.08,6.808 82.536,6.808 C80.904,6.808 79.576,7.848 79.576,9.528 L79.576,9.528 Z M82.936,14.904 C83.688,14.904 84.232,15.064 84.232,15.736 C84.232,16.456 83.496,16.728 82.552,16.728 C81.512,16.728 80.744,16.344 80.744,15.576 C80.744,15.272 80.792,15.032 80.92,14.84 C81.208,14.888 81.512,14.904 81.848,14.904 L82.936,14.904 Z M81.432,9.528 C81.432,8.856 81.896,8.408 82.536,8.408 C83.176,8.408 83.64,8.856 83.64,9.528 C83.64,10.184 83.176,10.616 82.536,10.616 C81.896,10.616 81.432,10.184 81.432,9.528 L81.432,9.528 Z M87.8,6.936 L87.8,15 L89.784,15 L89.784,11.784 C89.784,9.656 90.664,8.504 91.624,8.504 C92.296,8.504 92.776,8.872 92.776,9.832 L92.776,15 L94.76,15 L94.76,9.24 C94.76,7.624 93.72,6.808 92.28,6.808 C91.24,6.808 90.376,7.384 89.784,8.232 L89.784,6.936 L87.8,6.936 Z M100.52,15.128 C101.72,15.128 102.696,14.744 103.464,14.136 L104.12,15 L106.472,15 L104.68,12.664 C105.064,12.008 105.336,11.256 105.512,10.504 L104.36,9.16 C104.088,10.024 103.848,10.6 103.544,11.176 L101.704,8.76 C102.664,8.248 103.528,7.256 103.528,5.912 C103.528,4.776 102.6,3.672 100.936,3.672 C99.336,3.672 98.328,4.744 98.328,6.056 C98.328,6.84 98.648,7.624 99.096,8.248 C97.992,8.872 96.968,10.024 96.968,11.704 C96.968,13.864 98.52,15.128 100.52,15.128 L100.52,15.128 Z M100.536,13.288 C99.528,13.288 98.888,12.568 98.888,11.672 C98.888,10.856 99.336,10.12 100.104,9.656 L102.36,12.664 C101.848,13.08 101.336,13.288 100.536,13.288 L100.536,13.288 Z M100.936,5.368 C101.416,5.368 101.736,5.672 101.736,6.12 C101.736,6.792 101.096,7.192 100.6,7.416 C100.296,7.032 100.088,6.664 100.088,6.184 C100.088,5.688 100.44,5.368 100.936,5.368 L100.936,5.368 Z M108.488,3.8 L108.488,15 L112.664,15 C114.952,15 116.36,13.8 116.36,11.624 C116.36,10.2 115.736,9.32 114.68,8.888 C115.384,8.52 115.784,7.736 115.784,6.824 C115.784,4.792 114.488,3.8 112.584,3.8 L108.488,3.8 Z M112.424,5.72 C113.304,5.72 113.784,6.024 113.784,6.936 C113.784,7.848 113.304,8.152 112.472,8.152 L110.568,8.152 L110.568,5.72 L112.424,5.72 Z M112.472,10.072 C113.768,10.072 114.28,10.616 114.28,11.576 C114.28,12.536 113.768,13.08 112.472,13.08 L110.568,13.08 L110.568,10.072 L112.472,10.072 Z M125.352,10.792 C125.352,9.032 124.28,6.808 121.592,6.808 C118.824,6.808 117.72,9.064 117.72,10.968 C117.72,12.872 118.824,15.128 121.592,15.128 C123.544,15.128 124.632,14.2 125.256,12.776 L123.656,12.184 C123.176,13.016 122.616,13.432 121.704,13.432 C120.472,13.432 119.848,12.504 119.8,11.608 L125.352,11.608 L125.352,10.792 Z M121.592,8.504 C122.648,8.504 123.144,9.24 123.32,10.04 L119.848,10.04 C119.992,9.272 120.584,8.504 121.592,8.504 L121.592,8.504 Z M134.248,10.792 C134.248,9.032 133.176,6.808 130.488,6.808 C127.72,6.808 126.616,9.064 126.616,10.968 C126.616,12.872 127.72,15.128 130.488,15.128 C132.44,15.128 133.528,14.2 134.152,12.776 L132.552,12.184 C132.072,13.016 131.512,13.432 130.6,13.432 C129.368,13.432 128.744,12.504 128.696,11.608 L134.248,11.608 L134.248,10.792 Z M130.488,8.504 C131.544,8.504 132.04,9.24 132.216,10.04 L128.744,10.04 C128.888,9.272 129.48,8.504 130.488,8.504 L130.488,8.504 Z M138.088,15 L138.088,12.136 C138.088,9.528 139.096,8.584 140.248,8.584 C140.584,8.584 140.84,8.664 141.08,8.808 L141.448,6.968 C141.128,6.872 140.824,6.808 140.472,6.808 C139.56,6.808 138.664,7.304 138.088,8.248 L138.088,6.936 L136.104,6.936 L136.104,15 L138.088,15 Z M145.272,6.808 C143.704,6.808 142.696,7.912 142.696,9.16 C142.696,10.408 143.448,10.968 144.328,11.336 C145.304,11.752 146.344,11.896 146.344,12.568 C146.344,13.16 145.96,13.432 145.352,13.432 C144.568,13.432 144.024,12.888 143.736,12.104 L142.152,12.952 C142.552,13.944 143.672,15.128 145.352,15.128 C147.096,15.128 148.216,13.896 148.216,12.44 C148.216,10.712 146.408,10.36 145.304,9.96 C144.824,9.784 144.536,9.528 144.536,9.176 C144.536,8.728 144.888,8.504 145.272,8.504 C145.72,8.504 146.248,8.728 146.616,9.208 L147.8,8.12 C147.304,7.336 146.36,6.808 145.272,6.808 L145.272,6.808 Z" id="Design&amp;Beers" fill="#000000"></path>
                                <g>
                                    <polygon id="Shape" stroke="#D4162C" stroke-width="2" points="0 28.6761364 3.99318182 35.7954545 7.95454545 28.6363636 7.95454545 27.0454545 0 27.0454545"></polygon>
                                    <path d="M0,25.4513636 L0,1.59568182 C0,0.715909091 0.711931818,0 1.59090909,0 L6.36363636,0 C7.24897727,0 7.95454545,0.715909091 7.95454545,1.59647727 L7.95454545,27.8409091 L0,27.8409091 L0,25.4513636 L0,25.4513636 Z" id="Shape" stroke="#D4162C" stroke-width="2" fill="#FFFFFF"></path>
                                    <polygon id="Shape" fill="#D4162C" points="0.397727273 4.77272727 7.55681818 4.77272727 7.55681818 5.56818182 0.397727273 5.56818182"></polygon>
                                    <polygon id="Rectangle-32" fill="#D4162C" points="5.56818182 5.56818182 6.36363636 5.56818182 6.36363636 27.8409091 5.56818182 27.8409091"></polygon>
                                    <polygon id="Shape" fill="#D4162C" points="1.59090909 5.56818182 2.38636364 5.56818182 2.38636364 27.8409091 1.59090909 27.8409091"></polygon>
                                    <polygon id="Shape" fill="#D4162C" points="2.78409091 32.6136364 5.17045455 32.6136364 4.09659091 35"></polygon>
                                </g>
                                <g transform="translate(17.500000, 0.000000)">
                                    <rect id="Rectangle-path" stroke="#D4162C" stroke-width="2" fill="#FFFFFF" x="3.18181818" y="32.6136364" width="11.1363636" height="3.97727273" rx="0.5"></rect>
                                    <path d="M5.17045455,5.56022727 C5.10443182,5.56579545 5.03840909,5.56818182 4.97159091,5.56818182 C4.65818182,5.56818182 4.35909091,5.51647727 4.08068182,5.42261364 C3.80227273,5.51647727 3.5,5.56818182 3.18181818,5.56818182 C1.86375,5.56818182 0.795454545,4.67727273 0.795454545,3.57954545 C0.795454545,2.52159091 1.78977273,1.65454545 3.04102273,1.59409091 C3.51590909,1.10409091 4.20397727,0.795454545 4.97159091,0.795454545 C5.68193182,0.795454545 6.32386364,1.05954545 6.79159091,1.4875 C7.34204545,0.598181818 8.36977273,0 9.54545455,0 C10.9613636,0 12.1601136,0.867045455 12.57375,2.06420455 C13.0056818,1.76590909 13.5386364,1.59090909 14.1193182,1.59090909 C15.5471591,1.59090909 16.7045455,2.65920455 16.7045455,3.97727273 C16.7045455,5.29534091 15.5471591,6.36363636 14.1193182,6.36363636 C13.9140909,6.36363636 13.7136364,6.34136364 13.5227273,6.3 L13.5227273,7.55681818 L5.17045455,7.55681818 L5.17045455,5.56022727 L5.17045455,5.56022727 Z" id="Shape" stroke="#D4162C" stroke-width="2" fill="#FFFFFF"></path>
                                    <path d="M8.75,33.4090909 L3.18181818,33.4090909 L3.18181818,28.0493182 C3.18181818,24.6590909 0,20.1385227 0,12.4544318 C0,4.77034091 0.55125,4.77272727 0.55125,4.77272727 L16.94875,4.77272727 C16.94875,4.77272727 17.5,4.70909091 17.5,12.4544318 C17.5,20.2005682 14.3181818,24.6590909 14.3181818,28.0493182 L14.3181818,33.4090909 L8.75,33.4090909 L8.75,33.4090909 Z" id="Shape" stroke="#D4162C" stroke-width="2" fill="#FFFFFF"></path>
                                    <ellipse id="Oval" fill="#D4162C" cx="8.75" cy="13.5227273" rx="5.56818182" ry="5.56818182"></ellipse>
                                    <ellipse id="Oval" fill="#FFFFFF" cx="6.36363636" cy="11.9318182" rx="0.795454545" ry="0.795454545"></ellipse>
                                    <path d="M11.1363636,14.3181818 C11.1363636,15.63625 10.0680682,16.7045455 8.75,16.7045455 C7.43193182,16.7045455 6.36363636,15.63625 6.36363636,14.3181818" id="Shape" fill="#FFFFFF"></path>
                                    <circle id="Oval" fill="#FFFFFF" cx="11.1363636" cy="11.9318182" r="0.795454545"></circle>
                                    <polygon id="Shape" fill="#D4162C" points="3.97727273 33.4090909 13.5227273 33.4090909 13.5227273 34.2045455 3.97727273 34.2045455"></polygon>
                                    <polygon id="Shape" fill="#D4162C" points="3.97727273 32.6136364 13.5227273 32.6136364 13.5227273 33.4090909 3.97727273 33.4090909"></polygon>
                                </g>
                            </g>
                        </g>
                    </g>
                </g>
            </g>
        </g>
    </g>
</svg>