<?xml version="1.0" encoding="UTF-8" standalone="no"?>
<svg width="149px" height="23px" viewBox="0 0 149 23" version="1.1" xmlns="http://www.w3.org/2000/svg" xmlns:xlink="http://www.w3.org/1999/xlink">
    <!-- Generator: Sketch 3.8.3 (29802) - http://www.bohemiancoding.com/sketch -->
    <title>drubbbler</title>
    <desc>Created with Sketch.</desc>
    <defs></defs>
    <g id="Partenaires" stroke="none" stroke-width="1" fill="none" fill-rule="evenodd">
        <g id="Partners" transform="translate(-1095.000000, -341.000000)" fill="#FC73A8">
            <g id="partners" transform="translate(196.000000, 164.000000)">
                <g id="logos" transform="translate(450.000000, 165.000000)">
                    <g id="drubbbler" transform="translate(449.000000, 12.000000)">
                        <path d="M9.09739352,1.97333306 C8.1585344,0.817405088 6.72582472,0.0787740845 5.12059853,0.0787740845 C2.29257005,0.0787740845 0,2.37134414 0,5.19937261 C0,7.21042574 1.15931684,8.95070591 2.84609375,9.78835634 C2.81108355,9.50496303 2.79305374,9.21630919 2.79305374,8.92344427 C2.79305374,5.29587791 5.55927692,2.31439759 9.09739352,1.97333306 L9.09739352,1.97333306 L9.09739352,1.97333306 Z M16.8908354,7.09039498 C15.8376137,4.96952218 13.6494685,3.5118525 11.1208663,3.5118525 C7.56503819,3.5118525 4.68247,6.39442069 4.68247,9.95024876 C4.68247,11.9685836 5.61118938,13.7700044 7.06459806,14.950481 C7.49343633,10.501822 11.2422074,7.023705 15.8033363,7.023705 C16.1715706,7.023705 16.5345102,7.04637483 16.8908354,7.09039498 L16.8908354,7.09039498 L16.8908354,7.09039498 Z M15.8033363,22.2417325 C19.3591643,22.2417325 22.2417325,19.3591643 22.2417325,15.8033363 C22.2417325,12.2475082 19.3591643,9.36494001 15.8033363,9.36494001 C12.2475082,9.36494001 9.36494001,12.2475082 9.36494001,15.8033363 C9.36494001,19.3591643 12.2475082,22.2417325 15.8033363,22.2417325 L15.8033363,22.2417325 Z" id="mark"></path>
                        <path d="M41.4492245,18.72988 C46.8059701,18.72988 50.4114721,15.2016389 50.4114721,10.1281826 C50.4114721,5.10623354 46.8059701,1.55223881 41.4234709,1.55223881 L35.0365818,1.55223881 L35.0365818,18.72988 L41.4492245,18.72988 Z M41.4234709,16.0772608 L38.0497512,16.0772608 L38.0497512,4.20485806 L41.4492245,4.20485806 C45.260755,4.20485806 47.3210418,6.83172373 47.3210418,10.1281826 C47.3210418,13.3988879 45.1577407,16.0772608 41.4234709,16.0772608 L41.4234709,16.0772608 Z M55.9484928,18.72988 L55.9484928,10.2569505 C56.4893181,9.35557507 58.0087796,8.58296752 59.167691,8.58296752 C59.5024876,8.58296752 59.7600234,8.6087211 59.9918057,8.66022827 L59.9918057,5.98185543 C58.3950834,5.98185543 56.9013755,6.90898449 55.9484928,8.0936494 L55.9484928,6.29089845 L53.2443664,6.29089845 L53.2443664,18.72988 L55.9484928,18.72988 Z M73.2806555,18.72988 L73.2806555,6.29089845 L70.5765291,6.29089845 L70.5765291,15.0213638 C69.9584431,15.8454785 68.7737782,16.6438396 67.4088382,16.6438396 C65.8636231,16.6438396 64.8849868,16.0257536 64.8849868,14.0942347 L64.8849868,6.29089845 L62.1808604,6.29089845 L62.1808604,15.0986245 C62.1808604,17.6224759 63.5200468,19.038923 66.1984197,19.038923 C68.1556921,19.038923 69.7009072,18.0602868 70.5765291,17.0816506 L70.5765291,18.72988 L73.2806555,18.72988 Z M79.4872695,14.9956102 L79.4872695,10.0509219 C80.1053556,9.1237928 81.4187884,8.37693884 82.7064677,8.37693884 C84.8440152,8.37693884 86.2089552,10.102429 86.2089552,12.4975124 C86.2089552,14.9183494 84.8440152,16.6438396 82.7064677,16.6438396 C81.4187884,16.6438396 80.1053556,15.9227392 79.4872695,14.9956102 L79.4872695,14.9956102 Z M79.4872695,18.72988 L79.4872695,17.0301434 C80.4401522,18.2663155 81.8823529,19.038923 83.4790752,19.038923 C86.6725198,19.038923 89.016096,16.618086 89.016096,12.4975124 C89.016096,8.47995318 86.6982733,5.98185543 83.4790752,5.98185543 C81.9338601,5.98185543 80.4916594,6.67720222 79.4872695,8.01638865 L79.4872695,1.55223881 L76.7831431,1.55223881 L76.7831431,18.72988 L79.4872695,18.72988 Z M94.4501024,14.9956102 L94.4501024,10.0509219 C95.0681885,9.1237928 96.3816213,8.37693884 97.6693006,8.37693884 C99.8068481,8.37693884 101.171788,10.102429 101.171788,12.4975124 C101.171788,14.9183494 99.8068481,16.6438396 97.6693006,16.6438396 C96.3816213,16.6438396 95.0681885,15.9227392 94.4501024,14.9956102 L94.4501024,14.9956102 Z M94.4501024,18.72988 L94.4501024,17.0301434 C95.4029851,18.2663155 96.8451858,19.038923 98.4419081,19.038923 C101.635353,19.038923 103.978929,16.618086 103.978929,12.4975124 C103.978929,8.47995318 101.661106,5.98185543 98.4419081,5.98185543 C96.896693,5.98185543 95.4544922,6.67720222 94.4501024,8.01638865 L94.4501024,1.55223881 L91.745976,1.55223881 L91.745976,18.72988 L94.4501024,18.72988 Z M109.412935,14.9956102 L109.412935,10.0509219 C110.031021,9.1237928 111.344454,8.37693884 112.632133,8.37693884 C114.769681,8.37693884 116.134621,10.102429 116.134621,12.4975124 C116.134621,14.9183494 114.769681,16.6438396 112.632133,16.6438396 C111.344454,16.6438396 110.031021,15.9227392 109.412935,14.9956102 L109.412935,14.9956102 Z M109.412935,18.72988 L109.412935,17.0301434 C110.365818,18.2663155 111.808019,19.038923 113.404741,19.038923 C116.598186,19.038923 118.941762,16.618086 118.941762,12.4975124 C118.941762,8.47995318 116.623939,5.98185543 113.404741,5.98185543 C111.859526,5.98185543 110.417325,6.67720222 109.412935,8.01638865 L109.412935,1.55223881 L106.708809,1.55223881 L106.708809,18.72988 L109.412935,18.72988 Z M124.375768,18.72988 L124.375768,1.55223881 L121.671642,1.55223881 L121.671642,18.72988 L124.375768,18.72988 Z M133.647059,19.038923 C135.604331,19.038923 137.432836,18.3950834 138.694761,17.2104185 L137.458589,15.4334211 C136.557214,16.3347966 135.140767,16.8241147 133.904595,16.8241147 C131.561018,16.8241147 130.170325,15.253146 129.964296,13.3988879 L139.54463,13.3988879 L139.54463,12.7292947 C139.54463,8.81474978 137.1753,5.98185543 133.44103,5.98185543 C129.758267,5.98185543 127.131402,8.89201054 127.131402,12.4975124 C127.131402,16.4378109 129.887035,19.038923 133.647059,19.038923 L133.647059,19.038923 Z M136.943518,11.467369 L129.938543,11.467369 C130.041557,9.97366111 131.123207,8.19666374 133.415277,8.19666374 C135.861867,8.19666374 136.866257,9.99941469 136.943518,11.467369 L136.943518,11.467369 Z M144.927129,18.72988 L144.927129,10.2569505 C145.467954,9.35557507 146.987416,8.58296752 148.146327,8.58296752 C148.481124,8.58296752 148.73866,8.6087211 148.970442,8.66022827 L148.970442,5.98185543 C147.37372,5.98185543 145.880012,6.90898449 144.927129,8.0936494 L144.927129,6.29089845 L142.223003,6.29089845 L142.223003,18.72988 L144.927129,18.72988 Z"></path>
                    </g>
                </g>
            </g>
        </g>
    </g>
</svg>