<?xml version="1.0" encoding="UTF-8" standalone="no"?>
<svg width="150px" height="30px" viewBox="0 0 150 30" version="1.1" xmlns="http://www.w3.org/2000/svg" xmlns:xlink="http://www.w3.org/1999/xlink">
    <!-- Generator: Sketch 3.8.3 (29802) - http://www.bohemiancoding.com/sketch -->
    <title>papier</title>
    <desc>Created with Sketch.</desc>
    <defs></defs>
    <g id="Partenaires" stroke="none" stroke-width="1" fill="none" fill-rule="evenodd">
        <g id="Partners" transform="translate(-871.000000, -337.000000)">
            <g id="partners" transform="translate(196.000000, 164.000000)">
                <g id="logos" transform="translate(450.000000, 165.000000)">
                    <g id="papier" transform="translate(225.000000, 8.000000)">
                        <g id="Group">
                            <path d="M0.143801653,2.35599174 C-0.291322314,1.05433884 0.463636364,0 1.84214876,0 L33.2938017,0 C35.3442149,0 37.5334711,1.57933884 38.1830579,3.52438017 L44.5183884,22.5086777 C45.168595,24.4549587 44.028719,26.0330579 41.9820248,26.0330579 L11.7582645,26.0330579 C9.7072314,26.0330579 7.51797521,24.453719 6.86838843,22.5086777 L0.143801653,2.3553719 L0.143801653,2.35599174 Z" id="Shape" fill="#62EF62"></path>
                            <polygon id="Shape" fill="#FFFFFF" points="21.0743802 4.95867769 22.9338843 4.95867769 22.9338843 21.0743802 21.0743802 21.0743802"></polygon>
                            <path d="M57.8820248,15.3818182 L57.8820248,23.553719 L56.2475207,23.553719 L56.2475207,3.72396694 L62.4855372,3.72396694 C63.3570248,3.74256198 64.1714876,3.88698347 64.9301653,4.15971074 C65.6616727,4.41652013 66.3368045,4.8119605 66.918595,5.32438017 C67.4898526,5.83350685 67.9469638,6.45770434 68.2599174,7.15599174 C68.5865702,7.8731405 68.7502066,8.6857438 68.7502066,9.59380165 C68.7502066,10.5018595 68.5865702,11.3119835 68.2599174,12.0247934 C67.9478305,12.7178737 67.4903879,13.3357595 66.918595,13.8365702 C66.3508264,14.3311983 65.6857438,14.7105372 64.9227273,14.9733471 C64.1603306,15.2367769 63.3483471,15.3731405 62.4855372,15.382438 L57.8820248,15.382438 L57.8820248,15.3818182 Z M57.8820248,14.006405 L62.4855372,14.006405 C63.1080361,14.0030026 63.7253073,13.892506 64.3103306,13.6797521 C64.8509933,13.4841932 65.3499819,13.188543 65.7811983,12.8082645 C66.2035049,12.429548 66.5401331,11.9650731 66.768595,11.4458678 C67.0090909,10.9103306 67.1293388,10.3022727 67.1293388,9.62107438 C67.1293388,8.93987603 67.0115702,8.32252066 66.7754132,7.76900826 C66.5528649,7.2345914 66.2185176,6.75399355 65.7948347,6.35950413 C65.3672956,5.96759724 64.8677754,5.66236996 64.3239669,5.4607438 C63.761157,5.24690083 63.1481405,5.13099174 62.4855372,5.11301653 L57.8820248,5.11301653 L57.8820248,14.006405 L57.8820248,14.006405 Z M82.4380165,23.553719 C82.3318169,23.2274075 82.2542508,22.8924632 82.2061983,22.552686 C82.1512062,22.1801419 82.1147975,21.8050908 82.0971074,21.4289256 C81.8069547,21.7823903 81.4780352,22.1021616 81.1165289,22.3822314 C80.7446281,22.6735537 80.3380165,22.9252066 79.8979339,23.1384298 C79.4578512,23.3516529 78.9830579,23.5196281 78.4747934,23.6423554 C77.9665289,23.7650826 77.4347107,23.8258264 76.8811983,23.8258264 C76.1913223,23.8258264 75.5485537,23.7266529 74.9535124,23.5264463 C74.3590909,23.3268595 73.8415289,23.0454545 73.4014463,22.6822314 C72.9652537,22.3244056 72.612058,21.8760374 72.3663223,21.3681818 C72.1165289,20.8549587 71.9919421,20.2803719 71.9919421,19.6450413 C71.9919421,18.8008264 72.1778926,18.0830579 72.5497934,17.4929752 C72.922314,16.9028926 73.4262397,16.4237603 74.0621901,16.0561983 C74.6975207,15.6886364 75.4326446,15.4183884 76.2688017,15.2460744 C77.1337385,15.0705228 78.0143345,14.9837093 78.8969008,14.9869835 L82.0834711,14.9869835 L82.0834711,13.3121901 C82.0747934,12.7580579 81.9657025,12.2702479 81.7568182,11.8481405 C81.5555194,11.4352264 81.2648078,11.0723132 80.9057851,10.7857438 C80.5469008,10.4993802 80.1204545,10.2836777 79.6252066,10.1386364 C79.1005831,9.98919702 78.5572487,9.91572269 78.0117769,9.92045455 C77.4849174,9.92045455 76.9828512,9.98863636 76.5068182,10.125 C76.0295455,10.2613636 75.6080579,10.4566116 75.239876,10.7107438 C74.8805026,10.9559833 74.5764587,11.2737513 74.347314,11.643595 C74.1181489,12.0196473 73.9916252,12.4492295 73.9803719,12.8894628 L72.3458678,12.8758264 C72.3731405,12.2497934 72.5386364,11.6733471 72.8429752,11.1464876 C73.1554723,10.6105798 73.5749163,10.1447184 74.0752066,9.77789256 C74.5927686,9.39173554 75.1946281,9.08987603 75.8801653,8.87169421 C76.5919605,8.64991583 77.3338123,8.53972533 78.0793388,8.54504132 C78.8603306,8.54504132 79.593595,8.64483471 80.2791322,8.84504132 C80.9646694,9.0446281 81.5590909,9.34400826 82.0630165,9.74380165 C82.5699517,10.1469093 82.9796619,10.6589412 83.2617769,11.2419421 C83.5568182,11.8413223 83.7086777,12.539876 83.7179752,13.3394628 L83.7179752,20.4756198 C83.7179752,20.9659091 83.7613636,21.461157 83.8475207,21.960124 C83.9336777,22.4597107 84.0402893,22.9363636 84.1673554,23.3900826 L84.1809917,23.553719 L82.4380165,23.553719 L82.4380165,23.553719 Z M77.0578512,22.3822314 C77.6119571,22.3935034 78.1647823,22.324609 78.6991736,22.177686 C79.202801,22.0403365 79.6859522,21.836696 80.1359504,21.5721074 C80.5638058,21.3198173 80.9536509,21.0080247 81.2938017,20.6460744 C81.6209925,20.3004035 81.8879153,19.902324 82.0834711,19.4683884 L82.0834711,16.2396694 L79.1144628,16.2396694 C78.397314,16.2396694 77.707438,16.2942149 77.0442149,16.402686 C76.3816116,16.5117769 75.7958678,16.6909091 75.2876033,16.9407025 C74.7793388,17.1904959 74.3727273,17.5239669 74.0683884,17.9417355 C73.7646694,18.3595041 73.6121901,18.881405 73.6121901,19.5080579 C73.6121901,19.9530992 73.7033058,20.3522727 73.8849174,20.7068182 C74.0634729,21.0568887 74.3139863,21.3652778 74.6200413,21.6117769 C74.928719,21.8621901 75.2919421,22.0524793 75.7097107,22.1845041 C76.1463494,22.3188396 76.60103,22.3853171 77.0578512,22.3816116 L77.0578512,22.3822314 Z M100.592975,16.335124 C100.592975,17.2890496 100.477686,18.2169421 100.245868,19.1206612 C100.014669,20.0237603 99.660124,20.8227273 99.1834711,21.517562 C98.7153628,22.2043505 98.0986773,22.7769719 97.3791322,23.1929752 C96.652686,23.6144628 95.789876,23.8258264 94.7913223,23.8258264 C93.8739669,23.8258264 93.0347107,23.6491736 92.2716942,23.2952479 C91.5156991,22.9464731 90.8564677,22.4181092 90.3514463,21.7561983 L90.3514463,29.2190083 L88.7169421,29.2190083 L88.7169421,8.81838843 L90.2423554,8.81838843 L90.3105372,10.8340909 C90.8280992,10.1076446 91.4634298,9.54483471 92.2171488,9.14504132 C92.9708678,8.74524793 93.8200413,8.54566116 94.7646694,8.54566116 C95.7719008,8.54566116 96.6433884,8.75206612 97.3791322,9.16549587 C98.1047143,9.56959328 98.7251254,10.1386219 99.1902893,10.8266529 C99.6626033,11.5214876 100.014669,12.3204545 100.245868,13.2241736 C100.477686,14.1272727 100.592975,15.0694215 100.592975,16.0506198 L100.592975,16.3357438 L100.592975,16.335124 Z M98.9590909,16.05 C98.9590909,15.3142562 98.8772727,14.5828512 98.7136364,13.856405 C98.55,13.1305785 98.2871901,12.4791322 97.9239669,11.9020661 C97.5678934,11.332619 97.0856298,10.8526883 96.5144628,10.4993802 C95.9380165,10.1411157 95.231405,9.96136364 94.3964876,9.96136364 C93.9241736,9.96136364 93.4816116,10.0270661 93.0681818,10.1590909 C92.6650594,10.2857689 92.2839155,10.4739364 91.9382231,10.7169421 C91.597314,10.9580579 91.293595,11.2438017 91.0258264,11.5754132 C90.7554373,11.9108271 90.5288242,12.2792816 90.3514463,12.6719008 L90.3514463,19.9710744 C90.7164028,20.7157846 91.2826175,21.3434091 91.9859504,21.7828512 C92.6938017,22.2272727 93.506405,22.4497934 94.4237603,22.4497934 C95.25,22.4497934 95.9510331,22.2681818 96.5280992,21.9049587 C97.0975463,21.5488852 97.577477,21.0666216 97.9307851,20.4954545 C98.2890496,19.9190083 98.5506198,19.2650826 98.7136364,18.5342975 C98.8772727,17.8028926 98.9590909,17.0702479 98.9590909,16.3345041 L98.9590909,16.0493802 L98.9590909,16.05 Z M105.428926,8.8177686 L112.265702,8.8177686 L112.265702,22.1095041 L117.277686,22.1095041 L117.277686,23.553719 L105.428926,23.553719 L105.428926,22.1095041 L110.631198,22.1095041 L110.631198,10.2756198 L105.428926,10.2756198 L105.428926,8.81838843 L105.428926,8.8177686 Z M110.154545,4.78636364 C110.154545,4.45041322 110.25,4.15971074 110.440909,3.9142562 C110.631198,3.66942149 110.949174,3.54669421 111.394215,3.54669421 C111.829959,3.54669421 112.145455,3.66942149 112.340702,3.9142562 C112.53595,4.15971074 112.633264,4.45041322 112.633264,4.78636364 C112.633264,5.10371901 112.53595,5.38326446 112.340702,5.62376033 C112.145455,5.8642562 111.829959,5.98450413 111.394215,5.98450413 C110.949174,5.98450413 110.631818,5.8642562 110.440909,5.62376033 C110.251181,5.38631147 110.149943,5.09026766 110.154545,4.78636364 L110.154545,4.78636364 Z M127.710744,23.8258264 C126.684917,23.8258264 125.749587,23.6355372 124.905372,23.2543388 C124.083538,22.8892137 123.344425,22.3609744 122.732851,21.7016529 C122.121008,21.0346674 121.644616,20.2551349 121.330165,19.406405 C120.995267,18.5112335 120.822324,17.5636129 120.819421,16.6078512 L120.819421,16.0221074 C120.828719,14.9683884 121.003512,13.9884298 121.343802,13.0803719 C121.684711,12.172314 122.149587,11.3820248 122.739669,10.7107438 C123.319895,10.0463917 124.028806,9.50659029 124.823554,9.12396694 C125.626229,8.73719278 126.506746,8.53916646 127.397727,8.54504132 C128.378306,8.54504132 129.244835,8.72231405 129.999174,9.07623967 C130.731434,9.41405248 131.380124,9.9092996 131.898967,10.5266529 C132.41157,11.1396694 132.802066,11.8543388 133.070455,12.671281 C133.338223,13.4894628 133.476446,14.3652893 133.485744,15.3006198 L133.485744,16.2948347 L122.454545,16.2948347 L122.454545,16.6078512 C122.463223,17.3795455 122.595248,18.1171488 122.84938,18.8206612 C123.090281,19.5015654 123.455101,20.1320137 123.925413,20.6801653 C124.391054,21.2177881 124.960775,21.6555158 125.600207,21.9669421 C126.254132,22.2892562 126.980579,22.4504132 127.779545,22.4504132 C128.687603,22.4597107 129.508884,22.2917355 130.244628,21.9464876 C130.979951,21.601492 131.623754,21.0882755 132.123967,20.4483471 L133.159091,21.225 C132.879776,21.6139586 132.555181,21.968308 132.192149,22.2805785 C131.820248,22.6028926 131.404959,22.8774793 130.946281,23.1043388 C130.487603,23.3311983 129.985537,23.5084711 129.441322,23.6355372 C128.874071,23.7650161 128.293817,23.8288648 127.711983,23.8258264 L127.710744,23.8258264 Z M127.397727,9.93409091 C126.734504,9.93409091 126.127066,10.0592975 125.572934,10.3090909 C125.022628,10.5558967 124.527025,10.9098984 124.115083,11.3504132 C123.685207,11.8137754 123.335393,12.3454093 123.079959,12.9235537 C122.807851,13.5272727 122.621281,14.1880165 122.522107,14.9051653 L131.85062,14.9051653 L131.85062,14.7285124 C131.833158,14.1222071 131.720847,13.5223771 131.517769,12.9508264 C131.322986,12.3911511 131.027414,11.8718517 130.645661,11.418595 C130.263205,10.9694794 129.792789,10.6034832 129.26343,10.3431818 C128.718595,10.0704545 128.096901,9.93409091 127.397727,9.93409091 L127.397727,9.93409091 Z M147.541736,8.54566116 C147.950207,8.54566116 148.358678,8.57045455 148.767149,8.62004132 C149.17624,8.6696281 149.516529,8.74028926 149.788636,8.83078512 L149.584091,10.3971074 C149.206035,10.3160568 148.824427,10.252559 148.440496,10.2068182 C148.051691,10.1609517 147.660509,10.1381845 147.269008,10.1386364 C145.889256,10.1386364 144.717769,10.4652893 143.755165,11.1192149 C142.792562,11.7731405 142.116322,12.7760331 141.725826,14.1291322 L141.740083,23.553719 L140.051653,23.553719 L140.051653,8.8177686 L141.617355,8.8177686 L141.726446,11.377686 L141.726446,11.677686 C142.310532,10.720595 143.131328,9.93011141 144.109711,9.38243802 C145.099587,8.82458678 146.243802,8.54566116 147.542355,8.54566116 L147.541736,8.54566116 Z" id="Shape" fill="#62EF62"></path>
                        </g>
                    </g>
                </g>
            </g>
        </g>
    </g>
</svg>