<?xml version="1.0" encoding="UTF-8" standalone="no"?>
<svg width="150px" height="20px" viewBox="0 0 150 20" version="1.1" xmlns="http://www.w3.org/2000/svg" xmlns:xlink="http://www.w3.org/1999/xlink">
    <!-- Generator: Sketch 3.8.3 (29802) - http://www.bohemiancoding.com/sketch -->
    <title>skillshare</title>
    <desc>Created with Sketch.</desc>
    <defs>
        <polygon id="path-1" points="11.80538 0.309857143 0.224954738 0.309857143 0.224954738 10.6848857 11.80538 10.6848857"></polygon>
    </defs>
    <g id="Partenaires" stroke="none" stroke-width="1" fill="none" fill-rule="evenodd">
        <g id="Partners" transform="translate(-646.000000, -457.000000)">
            <g id="partners" transform="translate(196.000000, 164.000000)">
                <g id="logos" transform="translate(450.000000, 165.000000)">
                    <g id="skillshare" transform="translate(0.000000, 128.000000)">
                        <path d="M6.38078571,10.8036429 C6.24321429,10.8036429 6.1035,10.7809286 5.96635714,10.7333571 C5.83907143,10.6887857 5.56092857,10.5945 5.42292857,10.5486429 C3.60921429,9.94135714 0.572785714,8.92521429 0.366642857,5.91535714 C0.264214286,4.41921429 0.704785714,3.10692857 1.64121429,2.12078571 C2.71135714,0.992785714 4.36135714,0.3945 6.29335714,0.430928571 C9.6855,0.486642857 11.4662143,2.60635714 11.6582143,2.84764286 C12.0927857,3.3945 12.0019286,4.18992857 11.4550714,4.62407143 C10.9077857,5.05864286 10.1127857,4.96692857 9.67864286,4.42092857 C9.63364286,4.36521429 8.49407143,2.99635714 6.2475,2.9595 C5.04278571,2.93378571 4.04164286,3.26464286 3.47507143,3.86164286 C3.03278571,4.3275 2.83564286,4.96007143 2.88964286,5.74221429 C2.97321429,6.96492857 4.45007143,7.55592857 6.22564286,8.15035714 C6.3705,8.19921429 6.66192857,8.29778571 6.79521429,8.34407143 C7.45478571,8.57335714 7.80407143,9.29335714 7.57521429,9.95292857 C7.39392857,10.4757857 6.9045,10.8036429 6.38078571,10.8036429" id="Fill-1" fill="#68B8BE"></path>
                        <g id="Group-7" transform="translate(100.714286, 0.547329)" fill="#68B8BE">
                            <path d="M1.45881429,18.8342571 C1.29595714,18.8342571 1.13095714,18.8025429 0.9711,18.7361143 C0.327385714,18.4665429 0.0231,17.7255429 0.292671429,17.0814 L7.09538571,0.821828571 C7.36538571,0.177257143 8.10638571,-0.126171429 8.7501,0.1434 C9.39424286,0.412971429 9.6981,1.15354286 9.42852857,1.79768571 L2.62581429,18.0572571 C2.4231,18.5419714 1.95295714,18.8342571 1.45881429,18.8342571" id="Fill-3"></path>
                            <path d="M12.9516,13.7826 L3.57231429,13.7826 C2.87417143,13.7826 2.30802857,13.2164571 2.30802857,12.5183143 C2.30802857,11.8197429 2.87417143,11.2536 3.57231429,11.2536 L12.9516,11.2536 C13.6497429,11.2536 14.2158857,11.8197429 14.2158857,12.5183143 C14.2158857,13.2164571 13.6497429,13.7826 12.9516,13.7826" id="Fill-5"></path>
                        </g>
                        <path d="M115.7796,19.3815857 C115.285029,19.3815857 114.815314,19.0893 114.6126,18.6045857 L107.809886,2.34501429 C107.540314,1.70087143 107.8446,0.9603 108.488314,0.690728571 C109.130743,0.422014286 109.873457,0.725014286 110.143029,1.36915714 L116.945743,17.6287286 C117.215314,18.2728714 116.911029,19.0138714 116.267314,19.2834429 C116.107886,19.3498714 115.942457,19.3815857 115.7796,19.3815857" id="Fill-8" fill="#F26B21"></path>
                        <path d="M6.3594,19.4042143 C6.29168571,19.4012143 6.2304,19.4037857 6.16482857,19.4025 C2.43625714,19.3403571 0.484542857,17.0170714 0.274542857,16.7526429 C-0.160028571,16.2057857 -0.0687428571,15.4107857 0.478114286,14.9762143 C1.02454286,14.5420714 1.81868571,14.6329286 2.25325714,15.1785 C2.30982857,15.2487857 3.62125714,16.8315 6.21582857,16.8743571 L6.35125714,16.8752143 L6.35811429,16.8752143 C7.81268571,16.8752143 9.00754286,16.4642143 9.6384,15.7472143 C10.0961143,15.2273571 10.2658286,14.5335 10.1428286,13.6862143 C9.9294,12.2102143 8.22411429,11.5095 6.18454286,10.8083571 L5.97754286,10.7367857 C5.31754286,10.5135 4.9614,9.79735714 5.18382857,9.1365 C5.4054,8.47607143 6.1194,8.11907143 6.78068571,8.33935714 L6.99668571,8.4135 C8.94711429,9.08421429 12.1939714,10.2006429 12.6452571,13.3240714 C12.8762571,14.9153571 12.4926857,16.3309286 11.5369714,17.4177857 C10.4094,18.6987857 8.57125714,19.4042143 6.3594,19.4042143" id="Fill-10" fill="#F26B21"></path>
                        <g id="Group-14" transform="translate(69.428571, 0.118757)">
                            <mask id="mask-2" fill="white">
                                <use xlink:href="#path-1"></use>
                            </mask>
                            <g id="Clip-13"></g>
                            <path d="M6.25362857,10.6848857 C6.11605714,10.6848857 5.97634286,10.6621714 5.8392,10.6146 C5.71191429,10.5704571 5.43462857,10.4757429 5.29662857,10.4298857 C3.48205714,9.8226 0.445628571,8.80645714 0.239485714,5.7966 C0.137057143,4.30045714 0.577628571,2.98817143 1.51405714,2.00202857 C2.58462857,0.874028571 4.23548571,0.265457143 6.1662,0.312171429 C9.56348571,0.368314286 11.3407714,2.48888571 11.5319143,2.7306 C11.9656286,3.27788571 11.8734857,4.07288571 11.3262,4.5066 C10.7793429,4.93988571 9.98305714,4.84774286 9.5502,4.30088571 C9.50562857,4.24602857 8.36605714,2.8776 6.12034286,2.84074286 C4.93577143,2.81245714 3.91448571,3.14588571 3.34791429,3.74288571 C2.90562857,4.20874286 2.70848571,4.84131429 2.76248571,5.62345714 C2.84605714,6.84617143 4.32291429,7.43717143 6.09848571,8.0316 C6.24334286,8.08002857 6.53477143,8.17902857 6.66805714,8.22531429 C7.32805714,8.4546 7.67691429,9.1746 7.44805714,9.83417143 C7.26677143,10.3570286 6.77691429,10.6848857 6.25362857,10.6848857" id="Fill-12" fill="#68B8BE" mask="url(#mask-2)"></path>
                        </g>
                        <g id="Group-17" transform="translate(69.000000, 8.261614)" fill="#F26B21">
                            <path d="M6.66077143,11.1426 C6.59905714,11.1434571 6.53177143,11.1421714 6.4662,11.1408857 C2.7432,11.0787429 0.787628571,8.75674286 0.576771429,8.49231429 C0.141771429,7.94631429 0.231771429,7.15088571 0.777771429,6.71588571 C1.3242,6.28088571 2.1192,6.37045714 2.5542,6.91645714 C2.61505714,6.99145714 3.92605714,8.56988571 6.5172,8.61274286 L6.65262857,8.6136 L6.65948571,8.6136 C8.11362857,8.6136 9.30848571,8.2026 9.93977143,7.4856 C10.3974857,6.96574286 10.5667714,6.27231429 10.4442,5.4246 C10.2307714,3.9486 8.52548571,3.24788571 6.48634286,2.54674286 L6.27891429,2.47517143 C5.61891429,2.25188571 5.26277143,1.53574286 5.4852,0.874885714 C5.70677143,0.214028571 6.41905714,-0.1434 7.08205714,0.0777428571 L7.29591429,0.151028571 C9.24848571,0.822171429 12.4949143,1.93902857 12.9466286,5.06245714 C13.1772,6.6546 12.7936286,8.07017143 11.8383429,9.15617143 C10.7103429,10.4371714 8.8722,11.1426 6.66077143,11.1426" id="Fill-15"></path>
                        </g>
                        <path d="M17.3847857,19.3749857 C16.6866429,19.3749857 16.1205,18.8088429 16.1205,18.1107 L16.1205,12.3764143 C16.1205,11.6778429 16.6866429,11.1117 17.3847857,11.1117 C18.0829286,11.1117 18.6490714,11.6778429 18.6490714,12.3764143 L18.6490714,18.1107 C18.6490714,18.8088429 18.0829286,19.3749857 17.3847857,19.3749857" id="Fill-18" fill="#68B8BE"></path>
                        <path d="M28.3268143,19.3749857 C27.9282429,19.3749857 27.5356714,19.1868429 27.2901,18.8354143 L20.3918143,8.97784286 C19.9915286,8.40612857 20.1308143,7.61755714 20.7029571,7.21727143 C21.2751,6.81655714 22.0632429,6.95627143 22.4639571,7.52841429 L29.3618143,17.3855571 C29.7621,17.9577 29.6228143,18.7462714 29.0506714,19.1465571 C28.8299571,19.3008429 28.5771,19.3749857 28.3268143,19.3749857" id="Fill-20" fill="#68B8BE"></path>
                        <path d="M17.3845714,13.6407429 C17.2238571,13.6407429 17.0614286,13.6098857 16.9067143,13.5468857 C16.431,13.3523143 16.1207143,12.8898857 16.1207143,12.3764571 L16.1207143,1.87731429 C16.1207143,1.17917143 16.6864286,0.613028571 17.3845714,0.613028571 C18.0831429,0.613028571 18.6488571,1.17917143 18.6488571,1.87731429 L18.6488571,9.28131429 L26.7788571,0.992314286 C27.2682857,0.493457143 28.068,0.486171429 28.5668571,0.974742857 C29.0652857,1.46374286 29.073,2.26431429 28.584,2.76274286 L18.2875714,13.2618857 C18.045,13.5091714 17.7175714,13.6407429 17.3845714,13.6407429" id="Fill-22" fill="#F26B21"></path>
                        <path d="M34.3069286,7.92518571 C33.6087857,7.92518571 33.0426429,7.35904286 33.0426429,6.6609 L33.0426429,1.87718571 C33.0426429,1.17904286 33.6087857,0.613328571 34.3069286,0.613328571 C35.0050714,0.613328571 35.5712143,1.17904286 35.5712143,1.87718571 L35.5712143,6.6609 C35.5712143,7.35904286 35.0050714,7.92518571 34.3069286,7.92518571" id="Fill-24" fill="#68B8BE"></path>
                        <path d="M34.3069286,19.3749857 C33.6087857,19.3749857 33.0426429,18.8088429 33.0426429,18.1107 L33.0426429,6.66098571 C33.0426429,5.96284286 33.6087857,5.3967 34.3069286,5.3967 C35.0050714,5.3967 35.5712143,5.96284286 35.5712143,6.66098571 L35.5712143,18.1107 C35.5712143,18.8088429 35.0050714,19.3749857 34.3069286,19.3749857" id="Fill-26" fill="#F26B21"></path>
                        <path d="M41.6294571,19.3749857 C40.9313143,19.3749857 40.3651714,18.8088429 40.3651714,18.1107 L40.3651714,1.87727143 C40.3651714,1.17912857 40.9313143,0.612985714 41.6294571,0.612985714 C42.3276,0.612985714 42.8937429,1.17912857 42.8937429,1.87727143 L42.8937429,18.1107 C42.8937429,18.8088429 42.3276,19.3749857 41.6294571,19.3749857" id="Fill-28" fill="#68B8BE"></path>
                        <path d="M51.0869143,19.3749857 L41.6296286,19.3749857 C40.9310571,19.3749857 40.3653429,18.8088429 40.3653429,18.1107 C40.3653429,17.4121286 40.9310571,16.8459857 41.6296286,16.8459857 L51.0869143,16.8459857 C51.7850571,16.8459857 52.3512,17.4121286 52.3512,18.1107 C52.3512,18.8088429 51.7850571,19.3749857 51.0869143,19.3749857" id="Fill-30" fill="#F26B21"></path>
                        <path d="M56.1759857,19.3749857 C55.4778429,19.3749857 54.9117,18.8088429 54.9117,18.1107 L54.9117,1.87727143 C54.9117,1.17912857 55.4778429,0.612985714 56.1759857,0.612985714 C56.8741286,0.612985714 57.4402714,1.17912857 57.4402714,1.87727143 L57.4402714,18.1107 C57.4402714,18.8088429 56.8741286,19.3749857 56.1759857,19.3749857" id="Fill-32" fill="#F26B21"></path>
                        <g id="Group-38" transform="translate(120.000000, 0.547329)" fill="#F26B21">
                            <path d="M1.63774286,18.8276571 C0.9396,18.8276571 0.373457143,18.2615143 0.373457143,17.5633714 L0.373457143,1.32994286 C0.373457143,0.6318 0.9396,0.0656571429 1.63774286,0.0656571429 C2.33588571,0.0656571429 2.90202857,0.6318 2.90202857,1.32994286 L2.90202857,17.5633714 C2.90202857,18.2615143 2.33588571,18.8276571 1.63774286,18.8276571" id="Fill-34"></path>
                            <path d="M8.02662857,12.3790714 L1.63791429,12.3790714 C0.939342857,12.3790714 0.3732,11.8129286 0.3732,11.1147857 C0.3732,10.4162143 0.939342857,9.85007143 1.63791429,9.85007143 L8.02662857,9.85007143 C8.72477143,9.85007143 9.29091429,10.4162143 9.29091429,11.1147857 C9.29091429,11.8129286 8.72477143,12.3790714 8.02662857,12.3790714" id="Fill-36"></path>
                        </g>
                        <g id="Group-43" transform="translate(84.428571, 0.547329)" fill="#F26B21">
                            <path d="M6.46898571,10.7694 L1.38012857,10.7694 C0.681985714,10.7694 0.115842857,10.2032571 0.115842857,9.50511429 C0.115842857,8.80654286 0.681985714,8.24082857 1.38012857,8.24082857 L6.46898571,8.24082857 C7.16712857,8.24082857 7.73327143,8.80654286 7.73327143,9.50511429 C7.73327143,10.2032571 7.16712857,10.7694 6.46898571,10.7694" id="Fill-39"></path>
                            <path d="M1.3803,18.8276571 C0.682157143,18.8276571 0.116014286,18.2615143 0.116014286,17.5633714 L0.116014286,1.32994286 C0.116014286,0.6318 0.682157143,0.0656571429 1.3803,0.0656571429 C2.07844286,0.0656571429 2.64458571,0.6318 2.64458571,1.32994286 L2.64458571,17.5633714 C2.64458571,18.2615143 2.07844286,18.8276571 1.3803,18.8276571" id="Fill-41"></path>
                        </g>
                        <g id="Group-48" transform="translate(89.571429, 0.547329)" fill="#68B8BE">
                            <path d="M6.4152,10.7694 L1.32634286,10.7694 C0.627771429,10.7694 0.0616285714,10.2032571 0.0616285714,9.50511429 C0.0616285714,8.80654286 0.627771429,8.24082857 1.32634286,8.24082857 L6.4152,8.24082857 C7.11334286,8.24082857 7.67948571,8.80654286 7.67948571,9.50511429 C7.67948571,10.2032571 7.11334286,10.7694 6.4152,10.7694" id="Fill-44"></path>
                            <path d="M6.4152,18.8276571 C5.71705714,18.8276571 5.15091429,18.2615143 5.15091429,17.5633714 L5.15091429,1.32994286 C5.15091429,0.6318 5.71705714,0.0656571429 6.4152,0.0656571429 C7.11334286,0.0656571429 7.67948571,0.6318 7.67948571,1.32994286 L7.67948571,17.5633714 C7.67948571,18.2615143 7.11334286,18.8276571 6.4152,18.8276571" id="Fill-46"></path>
                        </g>
                        <path d="M65.6334429,19.3749857 L56.1761571,19.3749857 C55.4775857,19.3749857 54.9118714,18.8088429 54.9118714,18.1107 C54.9118714,17.4121286 55.4775857,16.8459857 56.1761571,16.8459857 L65.6334429,16.8459857 C66.3315857,16.8459857 66.8977286,17.4121286 66.8977286,18.1107 C66.8977286,18.8088429 66.3315857,19.3749857 65.6334429,19.3749857" id="Fill-49" fill="#68B8BE"></path>
                        <path d="M131.878843,19.3778571 C131.448557,19.3778571 131.028557,19.158 130.791986,18.7615714 L126.941271,12.3098571 C126.758271,12.0038571 126.713271,11.6344286 126.817414,11.2932857 C126.921557,10.9521429 127.164557,10.6705714 127.487271,10.5184286 C127.511271,10.5068571 130.313271,9.12942857 130.313271,6.73542857 C130.313271,4.317 128.983414,3.14142857 126.247414,3.14142857 L121.6377,3.14142857 C120.939557,3.14142857 120.373414,2.57571429 120.373414,1.87757143 C120.373414,1.179 120.939557,0.613285714 121.6377,0.613285714 L126.247414,0.613285714 C130.3767,0.613285714 132.842271,2.90185714 132.842271,6.73542857 C132.842271,9.40671429 131.0187,11.1775714 129.751843,12.0857143 L132.963129,17.4651429 C133.320986,18.0647143 133.125129,18.8412857 132.525557,19.1987143 C132.322414,19.3204286 132.099557,19.3778571 131.878843,19.3778571" id="Fill-51" fill="#68B8BE"></path>
                        <path d="M148.735543,19.3749857 L138.7584,19.3749857 C138.059829,19.3749857 137.493686,18.8088429 137.493686,18.1107 L137.493686,9.99527143 C137.493686,9.2967 138.059829,8.73098571 138.7584,8.73098571 C139.456543,8.73098571 140.022686,9.2967 140.022686,9.99527143 L140.022686,16.8459857 L148.735543,16.8459857 C149.433686,16.8459857 149.999829,17.4121286 149.999829,18.1107 C149.999829,18.8088429 149.433686,19.3749857 148.735543,19.3749857" id="Fill-53" fill="#68B8BE"></path>
                        <path d="M147.299529,11.2529571 L138.7581,11.2529571 C138.059957,11.2529571 137.493814,10.6868143 137.493814,9.98867143 L137.493814,1.85695714 C137.493814,1.15881429 138.059957,0.592671429 138.7581,0.592671429 L148.735671,0.592671429 C149.433814,0.592671429 149.999957,1.15881429 149.999957,1.85695714 C149.999957,2.5551 149.433814,3.12124286 148.735671,3.12124286 L140.022814,3.12124286 L140.022814,8.72438571 L147.299529,8.72438571 C147.997671,8.72438571 148.563814,9.2901 148.563814,9.98867143 C148.563814,10.6868143 147.997671,11.2529571 147.299529,11.2529571" id="Fill-55" fill="#F26B21"></path>
                    </g>
                </g>
            </g>
        </g>
    </g>
</svg>